<?xml version="1.0" standalone="no"?>
<!DOCTYPE svg PUBLIC "-//W3C//DTD SVG 1.1//EN" "http://www.w3.org/Graphics/SVG/1.1/DTD/svg11.dtd" >
<svg xmlns="http://www.w3.org/2000/svg">
<metadata>
Created by FontPrep 20130207 at Sat Dec  6 16:36:32 2014
 By Lawrence Chin
Copyright c 1992 Southern Software, Inc. All Rights Reserved
</metadata>
<defs>
<font id="d6b41e124d256236b809a8e189214402" horiz-adv-x='1024' >
  <font-face 
    font-family="DeutchLightSSiLight"
    font-weight="400"
    font-stretch="normal"
    units-per-em="2048"
    panose-1="2 2 5 0 0 0 0 0 0 0"
    ascent="1638"
    descent="-410"
    x-height="932"
    cap-height="1479"
    bbox="-940 -575 2271 1911"
    underline-thickness="50"
    underline-position="-75"
    unicode-range="U+0020-F002"
  />
<missing-glyph horiz-adv-x="1536" 
d="M1247 33v1214h-958v-1214h958zM256 0v1280h1024v-1280h-1024z" />
    <glyph glyph-name=".notdef" horiz-adv-x="1536" 
d="M1247 33v1214h-958v-1214h958zM256 0v1280h1024v-1280h-1024z" />
    <glyph glyph-name=".null" horiz-adv-x="0" 
 />
    <glyph glyph-name="nonmarkingreturn" horiz-adv-x="0" 
 />
    <glyph glyph-name="space" unicode=" " 
 />
    <glyph glyph-name="exclam" unicode="!" horiz-adv-x="569" 
d="M193 81q0 39 26 66t66 27t66 -27t26 -66t-26 -66t-66 -27t-66 27t-26 66zM215 1289q0 128 17 159t56 31t52.5 -27.5t13.5 -77.5t-3.5 -184t-7.5 -223t-12 -269t-18 -348l-51 -33q-47 844 -47 972z" />
    <glyph glyph-name="quotedbl" unicode="&#x22;" horiz-adv-x="758" 
d="M180 1382q0 97 64 97t63 -97q0 -11 -1 -17.5t-2 -16t-3 -23.5l-31 -326q-2 -45 -26 -45t-27 45l-31 326q-2 20 -4 35t-2 22zM451 1382q-1 97 63 97t64 -97q0 -10 -2.5 -26.5t-4.5 -30.5l-30 -326q-3 -45 -27 -45t-27 45l-30 326q-2 20 -4 35t-2 22z" />
    <glyph glyph-name="numbersign" unicode="#" horiz-adv-x="1065" 
d="M20 485v80h244l49 348h-233v80h244l67 486h92l-67 -486h303l67 486h93l-68 -486h233v-80h-243l-49 -348h233v-80h-244l-67 -485h-92l67 485h-303l-67 -485h-93l68 485h-234zM659 565l50 348h-303l-50 -348h303z" />
    <glyph glyph-name="dollar" unicode="$" horiz-adv-x="1065" 
d="M168 1135q0 141 103 236t243 106v90q0 24 39 24t39 -24v-88q130 -3 287 -33q6 -118 6 -186t-6 -74t-26 -6t-24.5 15t-18.5 85t-63.5 101t-154.5 32v-625q114 -51 232 -126.5t118 -280.5q0 -106 -66.5 -234.5t-283.5 -164.5v-179q0 -24 -39 -24t-39 24v172q-6 -2 -78 -2
t-297 33l-12 207q-2 44 -4 74q0 30 37 30q17 0 25.5 -16t15.5 -63q32 -199 291 -199q16 0 22 2v657q-79 38 -212.5 115.5t-133.5 321.5zM258 1143q0 -156 87 -218t169 -100v584q-109 -13 -182.5 -79.5t-73.5 -186.5zM840 325q0 103 -43 181.5t-205 155.5v-613
q115 22 181.5 97.5t66.5 178.5z" />
    <glyph glyph-name="percent" unicode="%" horiz-adv-x="1933" 
d="M524 -59l799 1591h78l-797 -1591h-80zM1210 288q0 -98 49 -179.5t161 -81.5t164 97.5t52 207.5t-55 192t-156 82q-73 0 -122 -44.5t-71 -110t-22 -163.5zM1096 328q0 86 45.5 163t122 122.5t164.5 45.5t162.5 -43.5t117.5 -118.5t43 -153q0 -151 -100 -261t-242 -110
q-143 0 -228 103.5t-85 251.5zM182 1154q0 80 45.5 157t122.5 122.5t165 45.5t162 -43.5t117.5 -118.5t43.5 -163t-45.5 -173t-124.5 -136.5t-161 -51.5t-141.5 28t-100.5 77.5t-62 112.5t-21 143zM297 1106q0 -96 48.5 -178t160.5 -82t164.5 97.5t52.5 207.5t-55.5 192
t-142.5 82t-135.5 -44t-70.5 -111.5t-22 -163.5z" />
    <glyph glyph-name="ampersand" unicode="&#x26;" horiz-adv-x="1706" 
d="M807 1078q0 60 -31 107.5t-86 73t-117 25.5q-107 0 -180.5 -61.5t-73.5 -158.5t59 -167t161 -143q211 121 239.5 192.5t28.5 131.5zM328.5 128q115.5 -77 252.5 -77q271 0 466 254l-515 385q-71 -44 -123.5 -76t-124 -93.5t-71.5 -188.5t115.5 -204zM242 1083
q0 99 53 165t126 97t151 31t155 -36.5t117.5 -100.5t40.5 -149t-34.5 -149.5t-95.5 -112.5t-165 -107l506 -352q61 95 140 280t79 264q0 39 -27.5 53.5t-83.5 23.5t-68.5 13.5t-15 11t-2.5 22.5t8 20t35 4l195 -27l213 27q12 0 16 -4.5t4 -22.5t-8.5 -24t-54.5 -15
t-69.5 -20t-33.5 -31t-43 -102t-114.5 -260.5t-126.5 -241.5l428 -293l-68 -86l-401 311q-169 -203 -305.5 -251t-248.5 -48t-208 38t-154.5 117t-58.5 194q0 208 362 399q-243 163 -243 362z" />
    <glyph glyph-name="quotesingle" unicode="'" 
d="M203 1382q-1 97 63 97t64 -97q0 -11 -1 -17.5t-2 -16t-3 -23.5l-31 -326q-3 -45 -27 -45t-26 45l-31 326q-2 20 -4 35t-2 22z" />
    <glyph glyph-name="parenleft" unicode="(" horiz-adv-x="606" 
d="M160 499q0 311 94.5 537t300.5 467l51 -43q-251 -293 -309.5 -516.5t-58.5 -389.5q0 -303 89 -523t279 -445l-51 -43q-273 322 -334 553.5t-61 402.5z" />
    <glyph glyph-name="parenright" unicode=")" horiz-adv-x="606" 
d="M369 518q0 190 -41 350.5t-121 301.5t-207 290l51 43q208 -243 301.5 -467t93.5 -512q0 -373 -129.5 -597t-265.5 -384l-51 43q252 296 310.5 519t58.5 413z" />
    <glyph glyph-name="asterisk" unicode="*" horiz-adv-x="758" 
d="M94 1296q0 16 12 29.5t26 13.5t52 -26l178 -135l-20 190q-6 62 -6 75t12.5 24.5t30.5 11.5t30.5 -11.5t12.5 -24.5t-6 -75l-21 -190l178 135q39 26 53 26t26 -13.5t12 -29.5q0 -31 -41 -47l-213 -96l215 -96q43 -21 43 -47q0 -43 -37 -43q-24 0 -60 26l-176 137l21 -192
q6 -65 6 -77t-13 -24t-30 -12t-30 12t-13 24t6 77l20 192l-176 -137q-35 -26 -59 -26q-37 0 -37 43q0 26 43 47l215 96l-213 96q-41 16 -41 47z" />
    <glyph glyph-name="plus" unicode="+" horiz-adv-x="1229" 
d="M569 569v478h90v-478h474v-92h-474v-477h-90v477h-473v92h473z" />
    <glyph glyph-name="comma" unicode="," 
d="M254 -36q0 56 -47 56q-26 0 -37 -8q22 71 25 162q39 -6 81 -6t82 6q-30 -311 -204 -526h-82q61 63 121.5 161.5t60.5 154.5z" />
    <glyph glyph-name="hyphen" unicode="-" horiz-adv-x="682" 
d="M125 440v105h432v-105h-432z" />
    <glyph glyph-name="period" unicode="." 
d="M174 81q0 39 27 66t66 27t65 -27t26 -66t-26 -66t-65 -27t-66 27t-27 66z" />
    <glyph glyph-name="slash" unicode="/" horiz-adv-x="682" 
d="M638 1479q48 0 48 -19t-14 -51l-574 -1419q-6 -17 -54 -17t-48 19t14 51l574 1419q6 17 54 17z" />
    <glyph glyph-name="zero" unicode="0" horiz-adv-x="1065" 
d="M848 727q0 521 -118 609.5t-194 88.5t-150 -72.5t-121.5 -230t-47.5 -395.5q0 -350 81 -525t217 -175t234.5 173.5t98.5 526.5zM528 -27q-114 0 -211.5 80t-156 251t-58.5 385q0 377 128 583.5t302 206.5q119 0 216.5 -79.5t156 -250.5t58.5 -412t-61 -411.5
t-160.5 -261.5t-213.5 -91z" />
    <glyph glyph-name="one" unicode="1" horiz-adv-x="1065" 
d="M498 238v1046l-207 -192q-42 -39 -51 -39t-23 15.5t-14 25.5t39 47l356 325l16 -14q-14 -66 -14 -219v-1057q0 -40 13.5 -63t51 -39t126.5 -35q26 -5 26 -23q0 -43 -18 -43q-4 0 -60 7.5t-110 13.5t-92 6t-142.5 -13.5t-120.5 -13.5q-16 -1 -16 31t25 35q104 15 148 34.5
t55.5 53t11.5 111.5z" />
    <glyph glyph-name="two" unicode="2" horiz-adv-x="1065" 
d="M362 0q-119 0 -311 -12v49q413 403 572 620t159 353.5t-37.5 209.5t-106 114.5t-164.5 41.5t-176 -50t-121.5 -136t-41.5 -189q0 -8 -7 -15t-15 -7q-19 -1 -19 99t52.5 196t146 150.5t209.5 54.5t205.5 -49t139.5 -138t50 -210t-62 -245.5t-213.5 -295t-443.5 -451.5h424
q90 0 138 35.5t93 123.5t58 103t27 15t21 -8.5t7 -18.5t-58 -125t-95 -242q-108 27 -299 27h-132z" />
    <glyph glyph-name="three" unicode="3" horiz-adv-x="1065" 
d="M259 91.5q69 -64.5 214 -64.5t256 104.5t111 266.5q0 163 -118.5 243t-305.5 80q-128 0 -232 -35l58 141q84 -26 180 -26t180.5 29t140.5 96.5t56 168.5t-60 197.5t-245 96.5q-130 0 -228 -71t-98 -226q0 -43 -14 -43q-27 -1 -27 85q0 170 104.5 257.5t273.5 87.5
t276.5 -91.5t107.5 -263.5q0 -238 -236 -329v-4q139 -37 214 -133t75 -232q0 -91 -38 -175.5t-140 -181t-283 -96.5t-303.5 86t-122.5 232q0 38 17 69t51 31q72 0 72 -90l-5 -68q0 -77 69 -141.5z" />
    <glyph glyph-name="four" unicode="4" horiz-adv-x="1065" 
d="M805 391v-266q0 -95 -39 -125h-117q28 42 40.5 90t12.5 137v164h-598q-47 0 -47 35q0 22 10 32t13 15l625 920q56 86 65 86q15 0 32 -9t17 -22l-14 -264v-703l125 8q26 3 40 3t19.5 -10t5.5 -52t-28 -43l-47 4h-115zM702 481v789h-4l-528 -789h532z" />
    <glyph glyph-name="five" unicode="5" horiz-adv-x="1065" 
d="M827 524q0 359 -360 359q-70 0 -165.5 -29t-160.5 -80h-8l121 678h565l107 6q10 0 10 -13t-22.5 -64.5t-34.5 -51.5q-3 0 -31 10.5t-107 10.5h-436l-78 -435q122 72 301 72q234 0 312 -129.5t78 -251.5t-34 -235.5t-98.5 -202t-163 -142t-216.5 -53.5t-198 41.5
t-121.5 115.5t-41.5 143t14 90.5t54 21.5q61 0 61 -80q0 -40 -2 -82q0 -93 69.5 -144.5t160.5 -51.5q180 0 302.5 152t122.5 345z" />
    <glyph glyph-name="six" unicode="6" horiz-adv-x="1065" 
d="M279 775q-86 -120 -86 -299t84.5 -314t252.5 -135q108 0 183.5 64t113 165.5t37.5 193.5t-18.5 169.5t-82 176.5t-230.5 99q-168 0 -254 -120zM557 975q268 0 339 -157t71 -290t-55 -261.5t-158 -211t-245 -82.5t-237 84.5t-138.5 215.5t-43.5 278q0 218 95 397.5
t242 303t306 187.5t283 64q21 0 53 -8q4 -5 4 -19t-65 -26q-150 -30 -303 -115t-277.5 -217.5t-185.5 -300.5l4 -4q104 162 311 162z" />
    <glyph glyph-name="seven" unicode="7" horiz-adv-x="1065" 
d="M266 1350q-86 0 -125 -16.5t-45 -16.5t-6 8l49 125q9 16 21 16t21 -1t24 -2t74 -6t135 -5h344q74 0 127 4q112 10 127 10q16 0 16 -16q0 -8 -22 -47l-768 -1403h-88l743 1350h-627z" />
    <glyph glyph-name="eight" unicode="8" horiz-adv-x="1065" 
d="M532 721q-102 0 -178.5 -41t-118.5 -115.5t-42 -171.5q0 -139 99.5 -228t239.5 -89t240 89t100 228q0 97 -42 171.5t-119 115.5t-179 41zM532 788q78 0 152 33t120 99.5t46 158.5t-62 194.5t-256 102.5t-255.5 -102.5t-61.5 -194.5t46 -158.5t119.5 -99.5t151.5 -33z
M670 758q286 -91 286 -377q0 -185 -121 -296.5t-303 -111.5q-119 0 -271 79t-152 347t286 359v4q-117 16 -187.5 114t-70.5 216t53.5 204t144 134.5t197.5 48.5t197.5 -48.5t144.5 -134.5t54 -182t-31 -170.5t-90.5 -123t-136.5 -58.5v-4z" />
    <glyph glyph-name="nine" unicode="9" horiz-adv-x="1065" 
d="M504 641q96 0 181.5 51t134 137.5t48.5 192.5t-36 196.5t-109 142.5t-185 52t-195.5 -57t-129 -154.5t-45.5 -201.5t43 -184t120 -127.5t173 -47.5zM487 551q-191 0 -294 124.5t-103 287.5q0 123 50 242t154 196.5t238 77.5t228.5 -64t146 -184.5t51.5 -290.5t-72.5 -347
t-191.5 -318t-253 -221.5t-253 -80.5q-61 0 -61 17q0 7 16 12q105 30 247 122t271.5 256.5t188.5 393.5h-4q-64 -95 -161.5 -159t-197.5 -64z" />
    <glyph glyph-name="colon" unicode=":" 
d="M174 81q0 39 27 66t66 27t65 -27t26 -66t-26 -66t-65 -27t-66 27t-27 66zM174 752q0 40 27 66t66 26t65 -26t26 -66t-26 -67.5t-65 -27.5t-66 27.5t-27 67.5z" />
    <glyph glyph-name="semicolon" unicode=";" 
d="M174 752q0 40 27 66t66 26t65 -26t26 -66t-26 -67.5t-65 -27.5t-66 27.5t-27 67.5zM254 -36q0 56 -47 56q-26 0 -37 -8q22 71 25 162q39 -6 81 -6t82 6q-30 -311 -204 -526h-82q61 63 121.5 161.5t60.5 154.5z" />
    <glyph glyph-name="less" unicode="&#x3c;" horiz-adv-x="1229" 
d="M96 479v88l1037 484v-95l-924 -432l924 -434v-94z" />
    <glyph glyph-name="equal" unicode="=" horiz-adv-x="1229" 
d="M96 276v93h1037v-93h-1037zM96 678v92h1037v-92h-1037z" />
    <glyph glyph-name="greater" unicode="&#x3e;" horiz-adv-x="1229" 
d="M1133 567v-88l-1037 -483v94l924 434l-924 432v95z" />
    <glyph glyph-name="question" unicode="?" horiz-adv-x="948" 
d="M356 81q0 39 27 66t67 27t65.5 -27t25.5 -66t-25.5 -66t-65.5 -27t-67 27t-27 66zM463 389q183 0 325 119l62 -70q-72 -58 -174.5 -86t-201.5 -28t-185 41t-138.5 117.5t-52.5 186.5t61.5 184.5t184.5 145t168 104t45 89.5t-39.5 94.5t-89.5 38.5l-102 -8q-13 0 -13 8
t66.5 81t72.5 73t57.5 -41t94.5 -100t43 -134t-55 -121t-182 -111t-192.5 -135t-65.5 -194q0 -74 47 -132t120 -90t144 -32z" />
    <glyph glyph-name="at" unicode="@" horiz-adv-x="1638" 
d="M1063 459q1 -72 117 -72q64 0 129.5 42.5t127.5 142t62 266.5q0 99 -44.5 205t-127 194.5t-204 144.5t-263.5 56q-286 0 -466.5 -206.5t-180.5 -561.5q0 -248 182 -439.5t479 -191.5q132 0 222 25.5t209 78.5l28 -51q-141 -59 -241 -89t-211 -30q-198 0 -352 66.5
t-255.5 176t-150.5 235t-49 269.5t60.5 289t228.5 307.5t481 162.5q314 0 517.5 -182.5t203.5 -456.5q0 -189 -81 -306t-161.5 -164.5t-166.5 -47.5t-140 47.5t-68 105.5h-4q-128 -153 -225 -153t-157 65.5t-60 206.5q0 57 27.5 147t81.5 175.5t134 141.5t181 56
q46 0 83.5 -31.5t57.5 -85.5h4l21 90h120l-143 -567q-6 -30 -6 -61zM616 588q0 -180 146 -180q65 0 127.5 75t102.5 187t40 196q0 158 -102 158q-59 0 -133 -53t-127.5 -154t-53.5 -229z" />
    <glyph glyph-name="A" unicode="A" horiz-adv-x="1403" 
d="M1029.5 -26.5q-13.5 0.5 -13.5 24.5t6 31t40 12q66 10 66 57q0 48 -41 150l-141 360h-520l-133 -350q-39 -102 -39 -152t76 -67q29 -6 35 -10.5t6 -30.5t-17 -25q-3 0 -72.5 13.5t-109.5 13.5t-104.5 -13.5t-69.5 -13.5q-16 -1 -16 25t6 31t50 17t77 44t87 166t126 314.5
t157.5 398t137.5 363.5q52 147 69.5 146.5t25.5 -28.5t98.5 -254t229.5 -564t170 -412t50.5 -106t48 -48t86.5 -27q20 -5 20 -35t-16 -31l-85 13q-86 14 -116 14t-95.5 -13.5t-79 -13zM684 1278l-227 -592h458z" />
    <glyph glyph-name="B" unicode="B" horiz-adv-x="1214" 
d="M365 795h120q118 0 198.5 41.5t120.5 110.5t40 151q0 301 -344 301h-107q-28 0 -28 -33v-571zM946 1142q0 -282 -280 -370v-4q434 -44 434 -391q0 -119 -60 -211t-168.5 -142.5t-246.5 -50.5q-31 0 -141.5 13.5t-169.5 13.5q-60 0 -152 -14l-92 -13q-26 0 -33.5 7
t-7.5 25t12 25.5t68 9.5t91.5 14t48.5 41t13 91v1129q0 53 -23 73t-85 23t-70 8t-8 19q0 41 24 41q12 1 86 -13t152 -14l254 12q107 0 230.5 -67t123.5 -255zM365 729v-496q0 -104 68.5 -149t194.5 -45t204 38.5t121.5 109.5t43.5 174t-57.5 187.5t-168.5 132.5t-267 48
h-139z" />
    <glyph glyph-name="C" unicode="C" horiz-adv-x="1479" 
d="M846 -27q-148 0 -291 62.5t-287.5 223.5t-144.5 460q0 200 81 373t247 280t403 107q155 0 299.5 -21t192.5 -28l8 -211q0 -21 -6 -28t-26 -7t-28 18t-18 74t-104.5 96.5t-286.5 40.5q-193 0 -342.5 -84.5t-227 -235t-77.5 -343.5q0 -259 108 -419t264 -226t310 -66
t261 44.5t132 139.5q14 54 23 69t24 15q39 0 39 -31q0 -23 -10 -65l-43 -182q-186 -56 -500 -56z" />
    <glyph glyph-name="D" unicode="D" horiz-adv-x="1630" 
d="M283 186v1141q1 79 -119 85q-58 2 -66 7t-8 19q0 41 22 41q22 1 104 -13t126 -14t87 2t119 6t230 4q321 0 525 -196t204 -533t-205.5 -549.5t-568.5 -212.5q-30 0 -158 13.5t-205 13.5t-185.5 -13.5t-124.5 -13.5q-31 0 -31 29q0 21 11.5 28.5t73.5 9.5t101.5 14t53.5 41
t14 91zM385 1370v-1089q0 -186 119 -214t233 -28q203 0 352 85t226.5 239t77.5 356q0 259 -100.5 404.5t-228 210.5t-310.5 65h-316q-30 0 -41.5 -5.5t-11.5 -23.5z" />
    <glyph glyph-name="E" unicode="E" horiz-adv-x="1100" 
d="M69.5 -27q-16.5 0 -16.5 26t11 32t67 8t83.5 11.5t37.5 33t10 78.5v1153q0 53 -23 73t-85 23t-70 8t-8 19q0 41 24 41q14 1 106 -13t173 -14l457 12q45 0 45 -41l18 -198q-2 -21 -45 -21q-21 0 -27 33.5t-12 54.5q-25 94 -104 94h-346v-618h409q58 0 66 53q10 82 19 89.5
t22 7.5q37 0 37 -25l-13 -166q0 -42 6.5 -89t6.5 -62t-7 -23t-33 -8q-26 -1 -26 29t-12 65q-21 49 -62 49h-413v-395q0 -105 24 -152.5t87 -62.5t203 -15t203.5 26t84.5 89t26.5 72.5t16.5 9.5q45 0 45 -29q0 -5 -27 -98t-39 -160q-321 27 -493 27t-239 -5.5t-119 -13.5
t-68.5 -8z" />
    <glyph glyph-name="F" unicode="F" horiz-adv-x="1024" 
d="M877 727l12 -155q0 -12 -6 -19.5t-33 -7.5q-27 -1 -27 29t-12 65q-21 49 -61 49h-385v-534q0 -62 71 -80l127 -35q29 -7 29 -25q0 -41 -35 -41q-1 0 -89.5 13.5t-152.5 13.5t-150.5 -13.5t-88.5 -13.5q-35 0 -35 41q0 18 29 25l127 35q39 13 52 31t13 49v1161
q0 53 -23 73t-85 23t-70 8t-8 19q0 41 24 41q14 1 106 -13t173 -14l506 12q0 -60 16.5 -145t16.5 -109t-41 -24q-16 0 -31 45l-29 82q-12 37 -39.5 55t-91.5 18h-321v-618h380q58 0 66 53q10 82 19 89.5t22 7.5q37 0 37 -25z" />
    <glyph glyph-name="G" unicode="G" horiz-adv-x="1554" 
d="M1274 -2q-42 0 -172 -12t-209 -13q-241 0 -415.5 95.5t-264.5 267t-90 376.5t71.5 376.5t238 281t429.5 109.5q138 0 287 -16t186 -19q1 -43 9 -116l8 -73q6 -41 6 -59t-43 -18q-32 0 -36 58t-32 95q-62 82 -364 82q-479 0 -562 -263t-83 -427q0 -327 187.5 -505.5
t514.5 -178.5q209 0 259 45t50 96v226q0 28 -19.5 40.5t-60 17t-61.5 8.5t-21 30q0 6 5 21.5t10 15.5l192 -13q49 0 102.5 6.5t61.5 6.5q15 -1 15 -27t-7.5 -30t-47.5 -12t-53 -29.5t-13 -84.5v-370q-36 12 -78 12z" />
    <glyph glyph-name="H" unicode="H" horiz-adv-x="1630" 
d="M262 176v1100q0 56 -18.5 79.5t-71.5 37.5l-78 20q-26 6 -26 25q0 41 16 41l86 -13q88 -14 142 -14t142 13.5t89 13.5q16 0 16 -41q0 -19 -27 -25l-77 -20q-52 -13 -71 -37t-19 -80v-508h901v508q0 56 -19 80t-71 37l-78 20q-27 6 -27 25q0 41 16 41q1 0 87.5 -13.5
t139.5 -13.5q52 0 142 14l90 13q17 0 17 -41q0 -19 -27 -25l-78 -20q-52 -14 -71 -37.5t-19 -79.5v-1100q0 -70 27 -88.5t63 -28.5l78 -20q27 -6 27 -25q0 -41 -17 -41q7 0 -82.5 13.5t-149.5 13.5t-146 -14l-81 -13q-16 0 -16 41q0 19 27 25l78 20q52 15 71 39t19 78v512
h-901v-512q0 -54 19 -78t71 -39l77 -20q27 -6 27 -25q0 -41 -16 -41q6 0 -82.5 13.5t-148.5 13.5t-148 -13.5t-80 -13.5q-16 0 -16 41q0 18 26 25l78 20q54 15 72 39t18 78z" />
    <glyph glyph-name="I" unicode="I" horiz-adv-x="606" 
d="M252 176v1100q0 56 -19 80t-71 37l-78 20q-27 6 -27 25q0 41 17 41q4 0 99 -13.5t130 -13.5t130 13.5t99 13.5q17 0 17 -41q0 -19 -27 -25l-78 -20q-52 -14 -71 -37.5t-19 -79.5v-1100q0 -70 27 -88.5t63 -28.5l78 -20q27 -6 27 -25q0 -41 -17 -41q4 0 -91 13.5
t-138 13.5t-138 -14l-91 -13q-17 0 -17 41q0 19 27 25l78 20q52 15 71 39t19 78z" />
    <glyph glyph-name="J" unicode="J" horiz-adv-x="606" 
d="M252 -20v1296q0 56 -19.5 80.5t-70.5 36.5l-78 20q-27 6 -27 25q0 41 17 41q4 0 99 -13.5t130 -13.5t130 13.5t99 13.5q17 0 17 -41q0 -19 -27 -25l-78 -20q-52 -12 -71 -36.5t-19 -80.5v-1133q0 -509 -379 -512v131q19 -2 78 -2t129 26.5t70 193.5z" />
    <glyph glyph-name="K" unicode="K" horiz-adv-x="1327" 
d="M262 176v1100q0 56 -18.5 80.5t-71.5 36.5l-78 20q-26 6 -26 25q0 41 16 41q3 0 97.5 -13.5t130.5 -13.5t132 13.5t99 13.5q16 0 16 -41q0 -19 -27 -25l-77 -20q-51 -12 -70.5 -36.5t-19.5 -80.5v-1100q0 -55 19 -79.5t71 -37.5l77 -20q27 -6 27 -25q0 -41 -16 -41
q5 0 -91 13.5t-140 13.5t-138 -14l-90 -13q-16 0 -16 41q0 18 26 25l78 20q53 14 71.5 38t18.5 79zM930 1366q0 24 -70 40t-69 32q0 41 16 41q4 0 83.5 -13.5t113.5 -13.5t114 13.5t86 13.5q17 0 17 -31t-21 -35q-79 -15 -114.5 -36.5t-100.5 -98.5l-448 -518l524 -567
q161 -173 246.5 -202.5t85.5 -31.5q0 -18 -70 -18t-144 23.5t-245 207.5l-522 561l487 574q31 35 31 59z" />
    <glyph glyph-name="L" unicode="L" horiz-adv-x="1063" 
d="M45 -27q-16 0 -16 33t8 33l115 12q48 6 79 17.5t31 85.5v1122q0 56 -18.5 80.5t-71.5 36.5l-78 20q-26 6 -26 25q0 41 16 41q3 0 97.5 -13.5t130.5 -13.5t132 13.5t99 13.5q16 0 16 -41q0 -19 -27 -25l-77 -20q-51 -12 -70.5 -36.5t-19.5 -80.5v-1028q0 -69 26 -106
t91.5 -51.5t163.5 -14.5t149.5 6t85 21.5t55 42t35 69.5t20.5 56.5t23 13.5t28.5 -8.5t12.5 -18.5t-27.5 -104.5t-38.5 -180.5q-458 48 -697.5 24t-246.5 -24z" />
    <glyph glyph-name="M" unicode="M" horiz-adv-x="1972" 
d="M1947 27.5q5 -5.5 5 -29.5t-22 -25q-12 0 -86 13.5t-128 13.5l-213 -27q-22 1 -22 25t6 30t35 11q147 24 147 92q0 24 -10 94l-123 1002h-4l-535 -1141q-23 -51 -32 -51t-33 47l-584 1114h-4l-65 -836q-13 -147 -13 -182t11 -61.5t47.5 -42.5t126.5 -35q18 -3 18 -29
t-4.5 -31.5t-18.5 -5.5t-92 13.5t-118 13.5t-117 -13.5t-80 -13.5q-19 0 -19 25t6 29.5t46 15.5t62 25t29.5 41.5t12.5 85.5l98 1204q2 10 7.5 45t17.5 35t33 -45l639 -1217l561 1176q31 62 38.5 74t17.5 12q16 0 26 -74l158 -1208q9 -76 35.5 -106t80.5 -44t59 -19.5z" />
    <glyph glyph-name="N" unicode="N" horiz-adv-x="1593" 
d="M51 3q0 18 7.5 22.5t61.5 16.5t77 40.5t24 112.5v1263q1 33 11 33t63 -66l983 -1230h4v1034q0 73 -8.5 102t-40.5 46t-87 29t-62 18t-7 30t27 25q27 0 105 -13.5t118 -13.5l197 27q13 0 15.5 -5t2.5 -24t-8 -24.5t-52 -14.5t-66.5 -23t-32 -43t-11.5 -88v-1265
q0 -39 -16 -39q-11 0 -28 18t-79 92l-934 1176h-4v-1016q0 -73 8.5 -102t40.5 -46t88 -29t62 -17.5t6 -30.5t-20 -25q-26 0 -105 13.5t-125 13.5l-196 -27q-12 0 -15.5 6t-3.5 24z" />
    <glyph glyph-name="O" unicode="O" horiz-adv-x="1704" 
d="M225 740q0 -201 79 -353.5t222 -238t326 -85.5t326 85.5t222 237.5t79 328t-55 302.5t-145 207.5t-202.5 123t-244.5 42t-276.5 -74.5t-237.5 -224t-93 -350.5zM123 704q0 356 218 565.5t511 209.5q188 0 356.5 -93.5t270.5 -265.5t102 -390t-92.5 -391t-259.5 -269.5
t-377 -96.5t-377 96.5t-259.5 269.5t-92.5 365z" />
    <glyph glyph-name="P" unicode="P" horiz-adv-x="1063" 
d="M94 -2q0 25 5 30.5t47 16.5t69 24t37 36t10 75v1094q0 84 -20 110t-78 28t-66 7t-8 19q0 41 25 41q12 1 86 -13t119 -14t74.5 2t83.5 6t136 4q379 0 379 -364q0 -116 -57 -203t-158.5 -133.5t-234.5 -46.5q-34 0 -83.5 29t-49.5 45q0 8 14 8l46 -7q48 -8 75 -8
q222 0 284 100t62 200t-70.5 207.5t-292.5 107.5h-57q-85 -1 -95 -9t-11 -22v-1139q0 -75 22.5 -111.5t70.5 -52t104 -21.5t61.5 -12t5.5 -32t-23 -27q6 0 -113 13.5t-166 13.5t-135 -14l-83 -13q-15 0 -15 25z" />
    <glyph glyph-name="Q" unicode="Q" horiz-adv-x="1704" 
d="M225 740q0 -201 79 -353.5t222 -238t326 -85.5t326 85.5t222 237.5t79 328t-55 302.5t-145 207.5t-202.5 123t-244.5 42t-276.5 -74.5t-237.5 -224t-93 -350.5zM1581 727q0 -314 -186 -520l141 -146q19 -18 52 -49.5t64 -47.5q31 -15 31 -17q0 -10 -62 -10t-101.5 14.5
t-87.5 60.5l-117 119q-191 -158 -463 -158q-210 0 -377 96.5t-259.5 269.5t-92.5 365q0 356 218 565.5t511 209.5q188 0 356.5 -93.5t270.5 -265.5t102 -393z" />
    <glyph glyph-name="R" unicode="R" horiz-adv-x="1327" 
d="M365 1368v-641q51 -8 118 -8q224 0 314 112t90 266t-82 228t-266 74h-140q-34 0 -34 -31zM1001 1130q0 -260 -253 -413l368 -490q54 -69 127 -143.5t105 -92.5q32 -19 32 -29t-4 -12.5t-22 -2.5q-79 0 -169.5 62t-164.5 161l-375 504q-82 -21 -215 -21h-65v-456
q0 -72 11.5 -93t25.5 -27.5t72 -19.5t74.5 -19t16.5 -25q0 -40 -35 -40q-14 0 -95.5 13.5t-121.5 13.5t-121.5 -13.5t-87.5 -13.5q-22 0 -22 45q0 14 21 22.5t106 31.5q34 10 43.5 31.5t9.5 76.5v1094q0 84 -20 110t-78 28t-66 7t-8 19q0 41 25 41q12 1 86 -13t151 -14
l299 12q156 0 253 -87.5t97 -246.5z" />
    <glyph glyph-name="S" unicode="S" horiz-adv-x="1063" 
d="M129 317q17 0 25 -15.5t16 -63.5q35 -199 291 -199q156 0 253 80.5t97 222.5t-80.5 209.5t-250.5 149t-256.5 170t-86.5 259.5q0 102 54.5 182t150.5 123.5t204 43.5t302 -37q6 -118 6 -185q0 -66 -7.5 -73.5t-25.5 -7.5t-24 14.5t-21 95.5q-22 127 -231 127
q-81 0 -154.5 -31t-118.5 -96t-45 -158q0 -129 80.5 -193t254.5 -142t262.5 -162.5t88.5 -258.5t-129 -286.5t-323 -112.5q-125 0 -352 33l-13 207q-2 44 -4 74q0 30 37 30z" />
    <glyph glyph-name="T" unicode="T" horiz-adv-x="1290" 
d="M594 176v1198h-430q-69 0 -123 -40t-55 -40q-13 0 -13 13l33 151q4 21 10 21l33 -13q33 -14 98 -14h951q98 0 148 14t42 13q15 0 15 -13q0 -1 -6.5 -21t-10.5 -40l-10 -41q-8 -34 -11 -42.5t-11 -8.5t-54 30.5t-123 30.5h-381v-1198q0 -55 19 -79t71 -38l78 -20
q27 -6 27 -25q0 -41 -17 -41q4 0 -91 13.5t-138 13.5t-138 -14l-91 -13q-17 0 -17 41q0 19 27 25l78 20q52 13 71 37.5t19 79.5z" />
    <glyph glyph-name="U" unicode="U" horiz-adv-x="1556" 
d="M779 -27q-188 0 -299 84t-156.5 202t-59.5 230q-28 218 -49 820q-2 52 -17.5 69.5t-69.5 31.5t-54 26q0 28 3 35.5t17 7.5t84 -13.5t111 -13.5t111 13.5t100 13.5q18 0 18 -28t-3 -32.5t-65 -15.5t-91 -30t-29 -87q0 -271 24 -709q14 -262 128.5 -400t297.5 -138
q139 0 278.5 93t162.5 427q16 245 16 289v391q0 66 -6.5 96.5t-29 45.5t-64.5 27t-48 18t-6 30t21 23q11 0 76.5 -13.5t102.5 -13.5t106 13.5t79 13.5t12.5 -6t2.5 -25t-6 -24.5t-52 -17.5t-66 -30.5t-20 -66.5q0 -470 -41 -787q-14 -118 -61.5 -240.5t-158.5 -215.5
t-299 -93z" />
    <glyph glyph-name="V" unicode="V" horiz-adv-x="1368" 
d="M1383 1479q16 0 16 -25t-8 -28.5t-34 -13.5q-55 -20 -77 -81l-555 -1335q-15 -35 -31 -35q-11 0 -24 31l-520 1222q-50 117 -74 149t-84 50q-23 7 -23 37t12 29q12 0 72.5 -13.5t66.5 -13.5l204 27q12 0 15 -6.5t3 -25.5t-8 -24t-46 -13t-51.5 -20t-13.5 -42t47 -148
l441 -1046l413 1026q54 126 54 162t-27 46.5t-77 19.5t-57 15.5t-7 24.5t4.5 24.5t19.5 6.5l168 -27q39 0 105.5 13.5t75.5 13.5z" />
    <glyph glyph-name="W" unicode="W" horiz-adv-x="2009" 
d="M360 1454q0 -25 -5.5 -30.5t-32.5 -10.5q-80 -17 -80 -53t47 -178l327 -983h5l352 1024l-39 102q-9 26 -26.5 43.5t-143.5 44.5q-16 3 -16 35t16 31q16 0 97 -13.5t131 -13.5t133 13.5t103 13.5q20 1 19 -23q0 -24 -6.5 -31t-71.5 -22t-90.5 -29t-25.5 -40t14 -79
l342 -1054h4l332 993q41 121 41 146t-22.5 39.5t-90.5 33.5q-12 2 -12 26t3.5 32t19.5 8t73.5 -13.5t95.5 -13.5t88 13.5t60 13.5q18 1 18 -31t-12 -35q-52 -16 -75 -28.5t-35 -32.5t-27 -66l-440 -1280q-16 -45 -31 -45q-10 0 -27 51l-362 1098h-4l-363 -1098
q-16 -51 -29 -51t-34 64l-449 1288q-17 50 -36 70.5t-55 28.5t-43 12.5t-7 29.5t14 25q1 0 74 -13.5t100 -13.5l168 27q14 0 14 -25z" />
    <glyph glyph-name="X" unicode="X" horiz-adv-x="1403" 
d="M1081 1364q0 19 -22.5 28t-89.5 21q-31 7 -31 30t5.5 29.5t17.5 6.5t88 -13.5t105 -13.5t112.5 13.5t97.5 13.5t18 -8t4 -37q0 -14 -36 -21q-110 -26 -154 -92l-430 -573l410 -582q54 -75 77.5 -88.5t66.5 -27.5t54.5 -21.5t11.5 -31.5t-24 -24q7 0 -77.5 13.5
t-126.5 13.5t-113 -13.5t-72 -13.5q-29 0 -29 35q0 16 11.5 22t25 10t45.5 14t40.5 18t8.5 32t-49 93l-330 467l-344 -467q-35 -47 -35 -79t15 -43t66 -24t61 -19.5t10 -32.5t-16 -26q10 0 -75.5 13.5t-135.5 13.5t-116 -13.5t-88 -13.5t-22 37q0 18 44.5 31t78 36.5
t68.5 72.5l438 587l-416 580q-44 71 -124 91q-43 10 -51.5 16.5t-8.5 23.5t5.5 24t21.5 7t82 -13.5t107 -13.5t110 13.5t100 13.5q16 0 16 -25t-5.5 -31t-24.5 -10q-101 -23 -101 -51q0 -36 33 -86l320 -459l319 432q53 69 53 115z" />
    <glyph glyph-name="Y" unicode="Y" horiz-adv-x="1290" 
d="M594 176v412l-490 766q-15 24 -29 32t-48 18t-43 17t-9 33t25 25l62 -13q62 -14 103 -14q40 0 110 14l67 13q12 0 16 -6.5t4 -26.5t-7 -26t-45 -14t-59.5 -13.5t-21.5 -24.5q0 -2 25 -47l403 -641l363 584q47 76 47 96t-15.5 29t-65.5 23t-50 30q0 24 6.5 30.5t22.5 6.5
t77.5 -13.5t87.5 -13.5t87 13.5t71 13.5q27 0 27 -19v-24q0 -9 -9.5 -13t-41.5 -11t-56.5 -26t-62.5 -81l-449 -717v-412q0 -70 27 -88.5t63 -28.5l78 -20q27 -6 27 -25q0 -41 -17 -41q4 0 -91 13.5t-138 13.5t-138 -14l-91 -13q-17 0 -17 41q0 19 27 25l78 20q52 15 71 39
t19 78z" />
    <glyph glyph-name="Z" unicode="Z" horiz-adv-x="1327" 
d="M248 1362q-66 0 -101 -27.5t-41 -27.5t-6 11t2 20.5t4 25.5l15 92q3 23 16 23l19 -7q53 -20 182 -20h827q37 0 37 -5t-24 -40l-955 -1317h834q111 0 163 13.5t61 13.5t9 -4q0 -17 -2 -25l-12 -80q-6 -35 -19 -35q-76 27 -163 27h-1051l991 1362h-786z" />
    <glyph glyph-name="bracketleft" unicode="[" horiz-adv-x="606" 
d="M186 -432v1911h346v-66h-268v-1780h268v-65h-346z" />
    <glyph glyph-name="backslash" unicode="\" horiz-adv-x="682" 
d="M686 -10q0 -17 -48 -17t-54 17l-574 1419q-14 31 -14 53q0 17 48 17t54 -17l574 -1419q14 -31 14 -53z" />
    <glyph glyph-name="bracketright" unicode="]" horiz-adv-x="606" 
d="M74 -432v65h268v1780h-268v66h346v-1911h-346z" />
    <glyph glyph-name="asciicircum" unicode="^" horiz-adv-x="1229" 
d="M203 696l377 756h69l377 -756h-94l-318 635l-317 -635h-94z" />
    <glyph glyph-name="underscore" unicode="_" horiz-adv-x="1024" 
d="M1024 -258h-1024v102h1024v-102z" />
    <glyph glyph-name="grave" unicode="`" 
d="M-27 1447q0 15 16.5 30.5t41.5 15.5t90 -61l295 -271h-62l-280 180q-18 13 -42.5 30t-34.5 26.5t-17 22t-7 27.5z" />
    <glyph glyph-name="a" unicode="a" horiz-adv-x="948" 
d="M748 694v-415q0 -87 6.5 -124.5t33.5 -64.5t89 -55q-7 -28 -28 -45t-47 -17t-60.5 24.5t-58.5 63t-28 78.5h-4q-102 -166 -319 -166q-129 0 -194.5 71t-65.5 173q0 129 116.5 209t456.5 125v106q0 97 -57.5 153t-181.5 56q-57 0 -91 -22q-16 -13 -24.5 -33t-23.5 -58.5
t-23 -45.5t-36 -7t-28 24t13 60l45 162h139q192 0 281.5 -56t89.5 -196zM645 254v201q0 28 -35 28q-87 0 -217 -43t-174.5 -94.5t-44.5 -131.5t57 -121.5t147 -41.5t178.5 57.5t88.5 145.5z" />
    <glyph glyph-name="b" unicode="b" horiz-adv-x="1139" 
d="M305 322q0 -271 225 -271q230 0 311 155.5t81 272.5t-31 194t-97 123t-156 46t-166.5 -43.5t-121.5 -113t-45 -138.5v-225zM82 1436q0 24 18 32l162 70q56 27 64 27t16 -12.5t8 -24.5t-17 -20t-22.5 -24.5t-5.5 -68.5v-696h4q147 227 361 227q109 0 190 -57t122.5 -150.5
t41.5 -222.5t-66 -258.5t-180.5 -207t-253.5 -77.5t-237 74q-49 38 -66.5 63t-17.5 54v1220q0 31 -39 31l-64 -4q-18 1 -18 25z" />
    <glyph glyph-name="c" unicode="c" horiz-adv-x="909" 
d="M115 434q0 128 42.5 231.5t138.5 192t253 88.5q81 0 170.5 -30t89.5 -92t-49 -62q-30 0 -77.5 34t-82 52t-115.5 18t-146 -63.5t-93.5 -159t-28.5 -179.5q0 -167 90 -284t236 -117q70 0 148 27.5t118 75.5l27 -43q-143 -150 -324 -150q-132 0 -222.5 65t-132.5 166.5
t-42 229.5z" />
    <glyph glyph-name="d" unicode="d" horiz-adv-x="1139" 
d="M571 879q-133 0 -243.5 -127t-110.5 -344t94.5 -281t168.5 -64t146 33.5t126 77.5t59 68v489q-58 148 -240 148zM811 162h-4q-155 -189 -330 -189t-268.5 109.5t-93.5 299.5t67 318t170.5 187t199.5 59q195 0 255 -117h4v555q0 31 -39 31l-63 -4q-19 1 -19 25t19 32
l161 70q56 27 64 27t16 -12.5t8 -24.5t-17 -20t-22.5 -24.5t-5.5 -68.5v-1247q0 -57 21 -57q3 0 36.5 17t43.5 17t17 -10.5t7 -20.5t-37 -34l-133 -88q-30 -19 -40 -19t-16.5 10.5t-6.5 22.5l6 47v109z" />
    <glyph glyph-name="e" unicode="e" horiz-adv-x="948" 
d="M715 696q0 76 -54 129.5t-157 53.5t-185 -94.5t-94 -217.5l426 78q42 7 53 17t11 34zM532 63q153 0 306 146l32 -37q-89 -94 -179.5 -146.5t-204.5 -52.5t-200 61t-128.5 163.5t-42.5 206.5q0 207 109.5 374.5t293.5 167.5q97 0 204 -63t107 -256q0 -25 -22 -27l-590 -98
q0 -439 315 -439z" />
    <glyph glyph-name="f" unicode="f" horiz-adv-x="645" 
d="M680 1487q0 -64 -56 -64q-27 0 -81 25t-82 25q-146 0 -146 -234v-319q0 -16 8.5 -21.5t28.5 -5.5l273 4q39 0 39 -39q0 -21 -10 -36t-25 -15h-314v-621q0 -78 48 -109t192 -38q19 -2 25 -7.5t5 -24.5t-9 -26.5t-27 -7.5l-285 27q-32 0 -102 -14l-70 -13q-14 -1 -14 29
t20 37q55 16 78 29t30 35t7 73v608q0 23 -12 23h-66q-14 1 -14 19t18 30l54 41q13 8 16.5 26t3.5 64v213q0 124 49.5 206.5t122.5 120.5t141 38q154 0 154 -78z" />
    <glyph glyph-name="g" unicode="g" horiz-adv-x="1024" 
d="M147 -254q0 -73 69 -150t228 -77t279.5 95.5t120.5 219.5q0 73 -115.5 122.5t-322.5 49.5q-58 0 -119 -33.5t-100.5 -93.5t-39.5 -133zM737 612q0 72 -51.5 163t-203.5 91t-201.5 -94t-49.5 -166t47 -162t193 -90q73 0 133.5 34t96.5 93t36 131zM172 154q0 51 57.5 99
t89.5 75q-178 74 -178 276q0 104 48 182.5t128.5 119t190.5 40.5t211 -80q140 27 239 27v-90q-122 0 -180 -8q49 -71 49 -174t-45 -177.5t-122 -115.5t-162 -41t-133 20q-57 -47 -74 -69.5t-17 -44.5q0 -45 84 -69t232 -48t207.5 -41t104 -63t44.5 -127t-67.5 -174
t-189 -156.5t-245.5 -63.5t-261.5 52.5t-137.5 240.5t281 287v4q-154 36 -154 119z" />
    <glyph glyph-name="h" unicode="h" horiz-adv-x="1139" 
d="M477 28q8 -5 8 -30t-20 -25q-12 0 -85 13.5t-116 13.5t-115.5 -13.5t-84.5 -13.5q-22 0 -21 37q0 13 7.5 17.5t53.5 14.5t71.5 24t31.5 37.5t6 82.5v1198q0 31 -39 31l-63 -4q-19 1 -19 25t19 32l161 70q56 27 64 27t16 -12.5t8 -24.5t-17 -20t-22.5 -24.5t-5.5 -68.5
v-651q103 114 178.5 148t141.5 34q135 0 213 -105t78 -343v-312q0 -59 6 -82.5t32 -37t71 -23.5t53 -15t8 -30t-21 -25q-12 0 -85.5 13.5t-115.5 13.5t-115 -13.5t-85 -13.5q-21 0 -21 25t8.5 30t52.5 15t70.5 23.5t32.5 37t6 82.5v324q0 181 -59 262.5t-186 81.5
q-76 0 -155 -57t-108 -105v-506q0 -59 6 -82.5t32 -37t71 -23.5t53 -15z" />
    <glyph glyph-name="i" unicode="i" horiz-adv-x="528" 
d="M182 1268q0 34 24.5 59t57.5 25t57.5 -25t24.5 -59t-24 -58t-58 -24t-58 24t-24 58zM477 28q8 -5 8 -30t-20 -25q-12 0 -85 13.5t-116 13.5t-115.5 -13.5t-84.5 -13.5q-22 0 -21 37q0 13 7.5 17.5t53.5 14.5t71.5 24t31.5 37.5t6 82.5v557q0 50 -4.5 62t-20.5 12l-98 -12
q-14 0 -14 19t4.5 25.5t17.5 12.5l193 90q15 6 28 6q19 0 19 -32q0 -2 -11.5 -33.5t-11.5 -71.5v-635q0 -59 6 -82.5t32 -37t71 -23.5t53 -15z" />
    <glyph glyph-name="j" unicode="j" horiz-adv-x="494" 
d="M182 1268q0 34 24.5 59t57.5 25t57.5 -25t24.5 -59t-24 -58t-58 -24t-58 24t-24 58zM76 824q0 19 4.5 25.5t17.5 12.5l193 90q15 6 28 6q19 0 19 -32q0 -2 -11.5 -33.5t-11.5 -71.5v-1153q0 -113 -75.5 -162t-169.5 -55l-13 62q91 21 123.5 53.5t32.5 105.5v1071
q0 50 -4.5 62t-20.5 12l-98 -12q-14 0 -14 19z" />
    <glyph glyph-name="k" unicode="k" horiz-adv-x="1024" 
d="M477 28q8 -5 8 -30t-20 -25q-12 0 -85 13.5t-116 13.5t-115.5 -13.5t-84.5 -13.5q-22 0 -21 37q0 13 7.5 17.5t53.5 14.5t71.5 24t31.5 37.5t6 82.5v1198q0 31 -39 31l-63 -4q-19 1 -19 25t19 32l161 70q56 27 64 27t16 -12.5t8 -24.5t-17 -20t-22.5 -24.5t-5.5 -68.5
v-1229q0 -59 6 -82.5t32 -37t71 -23.5t53 -15zM870 999q21 0 40.5 -16t19.5 -45t-14 -39.5t-84 -47t-113 -79.5l-248 -246l430 -428q28 -24 54 -35.5t73 -11.5q14 -1 14 -17t-34 -38.5t-66 -22.5q-64 0 -166 103l-422 432l387 401q88 90 129 90z" />
    <glyph glyph-name="l" unicode="l" horiz-adv-x="528" 
d="M477 28q8 -5 8 -30t-20 -25q-12 0 -85 13.5t-116 13.5t-115.5 -13.5t-84.5 -13.5q-22 0 -21 37q0 13 7.5 17.5t53.5 14.5t71.5 24t31.5 37.5t6 82.5v1198q0 31 -39 31l-63 -4q-19 1 -19 25t19 32l161 70q56 27 64 27t16 -12.5t8 -24.5t-17 -20t-22.5 -24.5t-5.5 -68.5
v-1229q0 -59 6 -82.5t32 -37t71 -23.5t53 -15z" />
    <glyph glyph-name="m" unicode="m" horiz-adv-x="1745" 
d="M477 28q8 -5 8 -30t-20 -25q-12 0 -85 13.5t-116 13.5t-115.5 -13.5t-84.5 -13.5q-22 0 -21 37q0 13 7.5 17.5t53.5 14.5t71.5 24t31.5 37.5t6 82.5v557q0 50 -4.5 62t-20.5 12l-98 -12q-14 0 -14 19t4.5 25.5t17.5 12.5l193 90q17 6 21 6t11 -12t7 -20q-15 -42 -15 -113
v-49q103 114 178.5 148t141.5 34q191 0 256 -203q116 111 188.5 157t165.5 46q135 0 213 -105t78 -343v-312q0 -59 6 -82.5t32 -37t71 -23.5t53 -15t8 -30t-20 -25q-12 0 -85 13.5t-116 13.5t-116 -13.5t-85 -13.5q-20 0 -20 25t7 29.5t53 14.5t72 24t32 37.5t6 82.5v324
q0 181 -59 262.5t-172 81.5t-188.5 -67t-101.5 -103q13 -88 13 -283v-215q0 -59 6 -82.5t32 -37t71 -23.5t53 -15t8 -30t-21 -25q-12 0 -85.5 13.5t-115.5 13.5t-115 -13.5t-85 -13.5q-21 0 -21 25t8.5 30t52.5 15t70.5 23.5t32.5 37t6 82.5v324q0 181 -59 262.5t-186 81.5
q-76 0 -155 -57t-108 -105v-506q0 -59 6 -82.5t32 -37t71 -23.5t53 -15z" />
    <glyph glyph-name="n" unicode="n" horiz-adv-x="1139" 
d="M477 28q8 -5 8 -30t-20 -25q-12 0 -85 13.5t-116 13.5t-115.5 -13.5t-84.5 -13.5q-22 0 -21 37q0 13 7.5 17.5t53.5 14.5t71.5 24t31.5 37.5t6 82.5v557q0 50 -4.5 62t-20.5 12l-98 -12q-14 0 -14 19t4.5 25.5t17.5 12.5l193 90q17 6 21 6t11 -12t7 -20q-15 -42 -15 -113
v-49q103 114 178.5 148t141.5 34q135 0 213 -105t78 -343v-312q0 -59 6 -82.5t32 -37t71 -23.5t53 -15t8 -30t-21 -25q-12 0 -85.5 13.5t-115.5 13.5t-115 -13.5t-85 -13.5q-21 0 -21 25t8.5 30t52.5 15t70.5 23.5t32.5 37t6 82.5v324q0 181 -59 262.5t-186 81.5
q-76 0 -155 -57t-108 -105v-506q0 -59 6 -82.5t32 -37t71 -23.5t53 -15z" />
    <glyph glyph-name="o" unicode="o" horiz-adv-x="1139" 
d="M1024 443q0 -129 -63 -239.5t-167 -170.5t-212 -60q-210 0 -338.5 132.5t-128.5 353.5q0 147 61.5 258t165.5 170t214 59t193 -33t145.5 -97.5t96 -154t33.5 -218.5zM922 459q0 179 -89.5 293t-262.5 114t-263 -115t-90 -292q0 -96 40.5 -190.5t120.5 -156t191 -61.5
t191.5 61.5t121 156t40.5 190.5z" />
    <glyph glyph-name="p" unicode="p" horiz-adv-x="1139" 
d="M922 488q0 108 -31 185t-97 123t-148 46t-151.5 -33t-122 -88.5t-67.5 -120.5v-289q0 -167 86.5 -219.5t182.5 -52.5t179 64.5t126 170.5t43 214zM434 -459q0 -23 -16 -30l-201 -76q-20 -10 -28 -10t-13.5 12.5t-5.5 20.5t16.5 21.5t16.5 31.5v1232q0 50 -4.5 62
t-20.5 12l-98 -12q-14 0 -14 19t4.5 25.5t17.5 12.5l186 86q18 10 26 10t13.5 -12t5.5 -14t-7 -33t-7 -86v-94h4q147 227 361 227q109 0 190 -57t122.5 -150t41.5 -197q0 -217 -131.5 -393t-343.5 -176q-167 0 -240 97h-4v-451q0 -36 8 -47.5t31 -11.5l45 2q45 2 45 -21z
" />
    <glyph glyph-name="q" unicode="q" horiz-adv-x="1139" 
d="M496 63q62 0 136 34t126.5 78.5t52.5 70.5v452q0 48 -32 89.5t-85 66.5t-120 25t-134.5 -38t-145 -141t-77.5 -265t74 -267t205 -105zM1042 -459q0 -23 -16 -30l-201 -76q-20 -10 -28 -10t-13.5 12.5t-5.5 20.5t16.5 21.5t16.5 31.5v647h-4q-21 -31 -111 -108t-213 -77
t-203.5 57t-122.5 151t-42 202q0 174 68.5 303t172.5 194.5t207 65.5q171 0 244 -117h4v99q0 18 6 18q7 0 45 -22t94 -21h60q14 1 14 -21t-4.5 -26.5t-42.5 -7.5t-54 -10.5t-16 -36.5v-1182q0 -36 8 -47.5t31 -11.5l45 2t45 -21z" />
    <glyph glyph-name="r" unicode="r" horiz-adv-x="682" 
d="M477 28q8 -5 8 -30t-20 -25q-12 0 -85 13.5t-116 13.5t-115.5 -13.5t-84.5 -13.5q-22 0 -21 37q0 13 7.5 17.5t53.5 14.5t71.5 24t31.5 37.5t6 82.5v557q0 50 -4.5 62t-20.5 12l-98 -12q-14 0 -14 19t4.5 25.5t17.5 12.5l176 86q22 10 27 10q12 0 12 -18v-188h4
q50 85 131.5 139.5t174.5 54.5q41 0 41 -22v-82q0 -21 -13 -21q-36 8 -65 8q-101 0 -162.5 -36t-85 -81.5t-23.5 -74.5v-451q0 -59 6 -82.5t32 -37t71 -23.5t53 -15z" />
    <glyph glyph-name="s" unicode="s" horiz-adv-x="834" 
d="M672 740q0 -34 -39 -33q-26 0 -35.5 18.5t-13.5 69.5t-38 67.5t-118 16.5t-144.5 -43.5t-60.5 -137.5q0 -63 51.5 -96.5t176 -90t188 -114t63.5 -145.5t-62.5 -183.5t-260.5 -95.5q-107 0 -221 21q-27 4 -29 29q-25 166 -25 198q0 47 48 47q22 0 31 -28t24 -115
q13 -86 170 -86q80 0 151.5 43t71.5 154q0 68 -55.5 105t-179 92t-184 108t-60.5 151t73.5 176t245.5 78q85 0 195 -14q21 -6 24 -27l11 -108q2 -23 2 -57z" />
    <glyph glyph-name="t" unicode="t" horiz-adv-x="645" 
d="M336 807q-21 0 -21 -23v-465q0 -188 50.5 -222t102.5 -34t92 15.5t72 37t38 21.5t16 -12.5t10 -22.5t-36.5 -43.5t-95.5 -59.5t-132 -26t-146 52t-73 297v452q0 35 -25 35q-33 0 -66 -1q-32 -1 -32 18t62 57q51 36 70 112t28.5 95.5t29.5 19.5t27.5 -6t7.5 -23v-184h322
q27 0 27 -30q0 -60 -35 -60h-293z" />
    <glyph glyph-name="u" unicode="u" horiz-adv-x="1139" 
d="M1055 114q0 -6 -33 -30l-156 -102q-12 -9 -22 -9t-22 12l-13 13q0 1 9 32t9 68t-4 56q-83 -100 -172.5 -140.5t-142.5 -40.5q-141 0 -218 88.5t-77 227.5v454q0 50 -4.5 62t-20.5 12l-98 -12q-14 0 -14 19t4.5 25.5t17.5 12.5l193 90q15 6 28 6q19 0 19 -32
q0 -2 -11.5 -33.5t-11.5 -71.5v-506q0 -117 53 -184.5t160 -67.5q70 0 156 45.5t139 118.5v576q0 19 -13 23.5t-39 4.5t-39 3.5t-13 23.5t7 25t45 9t78 14t73.5 31t35.5 21t12.5 -7.5t10.5 -19.5q0 -13 -18 -28.5t-27.5 -28.5t-9.5 -40v-666q0 -68 18 -68l84 47
q7 0 17 -13.5t10 -19.5zM809 2z" />
    <glyph glyph-name="v" unicode="v" horiz-adv-x="1024" 
d="M501 -39q-13 0 -22 13t-35 71l-340 784q-10 21 -49 34t-39 27t6 28t15 14q-3 0 35 -8q54 -6 99 -6t91 16l55 12q25 0 25 -41q0 -10 -8.5 -15.5t-46.5 -19.5t-46 -25.5t-8 -37.5q0 -65 285 -672l90 199q203 443 203 473q0 31 -57 55t-63.5 28t-6.5 12t8 26t21 18
q3 0 53 -12q40 -16 79 -16t83 7t49 7q31 0 31 -41q0 -11 -23 -18.5t-41 -17.5t-28 -31q-18 -35 -142.5 -309.5t-173.5 -375.5l-74 -155q-12 -23 -25 -23z" />
    <glyph glyph-name="w" unicode="w" horiz-adv-x="1669" 
d="M655.5 892q-6.5 6 -6.5 30q-1 24 19 24q10 0 72 -14t106 -14t120 14t84 14q20 0 19 -47q0 -13 -47 -21t-73.5 -20t-26.5 -34q0 -44 47.5 -178.5t195.5 -508.5q303 627 303 680q0 20 -19 33.5t-55 27.5t-36 27q0 3 8 22t12 19q10 0 54 -14t80 -14t63 6.5t46 14t23 7.5
t14.5 -19t10.5 -27t-23 -20t-40.5 -26t-30.5 -51l-365 -746q-45 -96 -73 -96q-16 0 -35 43t-109 285t-143 411h-4q-87 -221 -250 -561l-74 -155q-12 -23 -26 -23t-54 84l-354 784q-10 21 -49 34t-39 30q0 11 5.5 25t14.5 14l35 -8q57 -6 101 -6t90 16l55 12q25 0 25 -41
q0 -9 -9.5 -15t-46.5 -20t-45 -25.5t-8 -28.5q0 -61 295 -679l90 199q197 432 197 466t-18.5 47t-68.5 25t-56.5 18z" />
    <glyph glyph-name="x" unicode="x" horiz-adv-x="1024" 
d="M2 12q0 12 4.5 16t43.5 16q88 26 226 200l177 217l-297 360q-27 33 -74 51t-47 27t6.5 28t11.5 19q15 0 63 -14t80 -14t85 14t61 14t16.5 -14t8.5 -22t-34 -23.5t-45.5 -21.5t-11.5 -23t48 -76l190 -242l191 228q45 53 45 92q0 19 -37 35q-47 14 -47 22q0 15 7 30t15 15
t44.5 -14t85.5 -14t79.5 6.5t51.5 14t25 7.5t11.5 -16.5t7.5 -30.5q0 -9 -51 -34t-90 -70l-283 -334l203 -242q121 -146 174 -168q76 -28 76 -33q0 -10 -7.5 -27.5t-9.5 -17.5t-64.5 13.5t-96.5 13.5t-100 -14l-64 -13q-6 0 -13.5 19.5t-7.5 28.5q-1 9 25 15t48 19t22 25
t-43 67l-197 252l-207 -245q-53 -65 -53 -84t30 -33t31 -21q0 -7 -7.5 -25t-12.5 -18l-51 13q-52 14 -94 14t-84 -14l-43 -13q-21 0 -21 39z" />
    <glyph glyph-name="y" unicode="y" horiz-adv-x="1100" 
d="M893 821q0 20 -12.5 32t-56.5 29q-44 18 -44 22t8 23t11 19q15 0 63 -14t82 -14t90 14t66 14t10 -39q0 -3 -19 -9.5t-35 -18.5t-32 -36q-17 -24 -56.5 -99.5t-263.5 -502.5t-359 -608.5t-279 -181.5q-43 0 -43 94q0 17 12.5 23.5t54.5 11.5q96 10 156.5 58.5t152.5 209.5
l93 162q-177 390 -400 809q-22 43 -60 59t-38 26q0 12 6 27t11 15t42.5 -14t86.5 -14q50 0 112 14t66 14t12 -14t8 -25t-58 -33t-59 -55q0 -22 23 -69t35 -76l270 -563q344 636 344 710z" />
    <glyph glyph-name="z" unicode="z" horiz-adv-x="983" 
d="M356 0q-153 0 -264 -12q-18 0 -27.5 17t-9.5 36q0 5 47 59l635 727h-217q-242 0 -424 -26q-12 1 -12 19t31 112q86 -14 278 -14h209q24 0 62 2t96 4l102 8q4 0 10.5 -21t6.5 -35t-56 -77l-633 -709h310q134 0 279 8l130 8q19 0 19 -22t-25 -88q-2 -8 -18 -8l-22 2
q-130 10 -343 10h-164z" />
    <glyph glyph-name="braceleft" unicode="{" horiz-adv-x="606" 
d="M180 780v385q0 238 89 276t171 38v-29q-124 -29 -147 -111t-23 -161v-365q0 -84 -18.5 -168t-147.5 -119v-4q101 -28 133.5 -93.5t32.5 -195.5v-364q0 -121 37 -185.5t133 -86.5v-29q-82 0 -171 37.5t-89 275.5v385q0 115 -31 171.5t-122 86.5q92 31 122.5 86.5
t30.5 169.5z" />
    <glyph glyph-name="bar" unicode="|" horiz-adv-x="455" 
d="M176 -27v1592h103v-1592h-103z" />
    <glyph glyph-name="braceright" unicode="}" horiz-adv-x="606" 
d="M426 266v-385q0 -238 -89 -275.5t-171 -37.5v29q125 28 147.5 110t22.5 162v364q0 84 12.5 140t48 92t105.5 57v4q-129 35 -147.5 119t-18.5 168v365q0 159 -52.5 208t-117.5 64v29q82 0 171 -38t89 -276v-385q0 -147 46 -191t108 -65q-115 -38 -134.5 -109.5
t-19.5 -148.5z" />
    <glyph glyph-name="asciitilde" unicode="~" horiz-adv-x="1229" 
d="M382 549q-104 0 -173 -150l-62 62q93 178 256 178q81 0 228 -66q58 -26 112 -50.5t103 -24.5q48 0 89 40t85 109l61 -61q-121 -178 -239 -178q-66 0 -115 17t-111 50q-130 74 -234 74z" />
    <glyph glyph-name="u009D" horiz-adv-x="0" 
d="M893 1104q49 0 49 -49q0 -27 -21.5 -63.5t-51.5 -62.5t-56 -26q-47 0 -47 51q0 26 21 62t50.5 62t55.5 26zM360 86q0 60 68 212t151 281.5t115 129.5q16 0 27.5 -10.5t11.5 -26.5t-98.5 -169t-165.5 -378q-14 -50 -24.5 -69t-34.5 -19t-37 15t-13 34zM94 1284
q0 66 -86 66q-48 0 -133 -40t-156 -94t-128.5 -142t-57.5 -158t20.5 -123t45 -94t76.5 -123t69 -119q62 37 96 37q62 0 62 -50q0 -19 -12.5 -29.5t-40 -21t-59.5 -30t-32 -105.5q4 -57 53.5 -89t118.5 -32q4 2 9 2q70 0 138.5 26t113.5 74.5t45 106.5t-30 115t-88 143.5
t-88 150t-30 131.5t23 134q-5 -4 -14 -14t-43 -37t-112 -72t-112 -45t-53 14t-19 33l2 4q0 40 70 66q108 35 207 110q145 121 145 205zM674 1290q0 66 -88 66q-50 0 -134.5 -40t-153.5 -94t-127 -142t-58 -166t30.5 -141.5t90.5 -155t91 -151t31 -116.5q0 -92 -64 -164.5
t-162 -111.5t-187 -39q-191 0 -262 110q-61 -54 -149.5 -85t-179.5 -31t-191.5 48.5t-100.5 186.5q2 89 61 156t152 67q49 0 49 -49q0 -28 -48 -49.5t-71.5 -41.5t-23.5 -83t49 -98t123 -35q4 2 8 2q70 0 138.5 26t113.5 74.5t45 106.5t-30 115t-88 143.5t-88 150.5t-30 130
q0 202 197 376q89 81 204 138t201 57t133.5 -37t47.5 -106q0 -22 -6 -43q88 80 202 136t202 56q181 0 181 -150q0 -76 -62 -159t-136 -141q-189 -148 -277 -148q-19 0 -38 14t-19 33l2 4q0 40 70 66q110 37 194 103q158 124 158 212z" />
    <glyph glyph-name="nonbreakingspace" unicode="&#xa0;" horiz-adv-x="1536" 
 />
    <glyph glyph-name="exclamdown" unicode="&#xa1;" horiz-adv-x="569" 
d="M193 852q0 38 26.5 66t65.5 28t65.5 -28t26.5 -66t-26 -65t-66 -27t-66 27t-26 65zM354 -354q0 -133 -16 -164t-55 -31t-53.5 28.5t-14.5 78.5q0 243 41 1024l51 32q47 -835 47 -968z" />
    <glyph glyph-name="cent" unicode="&#xa2;" horiz-adv-x="1065" 
d="M600 63q68 0 147.5 28.5t118.5 72.5l27 -43q-64 -66 -149.5 -107t-165.5 -41t-148 25l-65 -191q-11 -24 -42 -24q-32 0 -32 12q0 2 5.5 16.5t6.5 18.5l68 193q-101 56 -150 162.5t-49 242.5t42.5 239t138 191t253.5 88q36 0 80 -8l47 131q10 25 42 25t32 -13
q0 -3 -4.5 -14t-7.5 -20l-43 -125q114 -33 114 -97q0 -71 -49 -71q-30 0 -59.5 24t-42.5 33l-250 -717q67 -31 135 -31zM559 866q-99 0 -163.5 -63t-93 -156.5t-28.5 -187.5t35.5 -182t100.5 -144l245 717q-38 16 -96 16z" />
    <glyph glyph-name="sterling" unicode="&#xa3;" horiz-adv-x="1065" 
d="M375 23h-174q-15 -17 -43 -35q-36 -15 -52 -15q-57 0 -57 37q0 28 35.5 52.5t97.5 31.5q27 47 55 95t56.5 112t28.5 175t-39 222h-170q-21 0 -21 32t6 40t23 8h129q-73 159 -86.5 206t-13.5 103q0 245 155.5 318.5t312.5 73.5q58 0 271 -25l6 -145q2 -54 2 -95
q0 -22 -24.5 -22t-29.5 5.5t-12 29.5q-28 143 -94.5 164.5t-155.5 21.5t-167 -38.5t-120 -109t-42 -138.5t22 -135.5t91 -213.5h374q17 0 21 -8t4 -32t-5.5 -32t-21.5 -8h-342q29 -83 29 -180t-48 -194.5t-138 -223.5q55 15 156 15q102 1 226 -7l119 -8q63 0 100 47.5
t77 127t63 79.5q37 0 37 -22q0 -3 -13.5 -29t-23.5 -51l-119 -279q-232 50 -485 50z" />
    <glyph glyph-name="currency" unicode="&#xa4;" horiz-adv-x="1065" 
d="M131 726q0 -108 54 -202t146.5 -148t200.5 -54t201 54t147 148t54 202t-54 202t-147 148t-201 54t-200.5 -54t-146.5 -148t-54 -202zM532 229q-177 0 -305 113l-110 -113l-76 76l109 111q-109 134 -109 312t109 308l-109 111l76 76l108 -111q133 111 309 111t306 -111
l108 111l76 -76l-109 -111q109 -134 109 -310t-109 -310l109 -111l-76 -76l-108 113q-131 -113 -308 -113z" />
    <glyph glyph-name="yen" unicode="&#xa5;" horiz-adv-x="1065" 
d="M137 371q-14 -1 -14 29t3.5 39.5t16.5 9.5h344v202h-350q-14 0 -14 40t20 40h312l-387 643q-19 22 -67 36t-48 42q0 27 16 27q9 0 75 -13.5t94 -13.5t94.5 13.5t74.5 13.5q17 1 17 -23t-4 -32t-50 -18t-61.5 -17t-15.5 -23t51 -104l299 -508l274 506q49 88 49 106t-16 24
t-62 16t-49.5 18t-3.5 32t17 23q8 0 76 -13.5t96 -13.5t96 13.5t76 13.5q16 0 16 -22t-9 -31t-57 -17t-67 -43l-369 -635h312q20 0 20 -40t-14 -40h-350v-202h344q13 0 16.5 -8t3.5 -39t-14 -31h-350v-129q0 -69 14 -125t145 -78q28 -4 36.5 -12t8.5 -27q0 -27 -34 -27
l-216 27l-215 -27q-34 0 -34 27q0 18 8.5 26t58.5 16t84 32t43.5 61.5t9.5 106.5v129h-350z" />
    <glyph glyph-name="brokenbar" unicode="&#xa6;" horiz-adv-x="455" 
d="M176 -27v611h103v-611h-103zM176 954v611h103v-611h-103z" />
    <glyph glyph-name="section" unicode="&#xa7;" horiz-adv-x="1065" 
d="M379 1110q0 105 45 170l-4 4q-81 -86 -129.5 -199.5t-48.5 -223.5t52 -221.5t163.5 -295.5t167 -308t55.5 -249q0 -61 -16 -117l4 -4q66 75 110.5 180t44.5 215t-57.5 237t-170.5 307t-164.5 290t-51.5 215zM164 821q0 177 91.5 329.5t228.5 240.5t264 88q44 0 89.5 -19
t45.5 -50t-18.5 -52t-42.5 -21q-36 0 -93.5 32t-89.5 32q-87 0 -141 -73.5t-54 -171.5t54.5 -206t168 -285.5t174 -310t60.5 -252.5t-51 -243t-135 -217q-171 -190 -404 -191q-48 0 -91.5 23.5t-43.5 61.5q0 70 70 69q36 0 91 -37t104 -37q50 0 94 31t68 81.5t24 122.5
t-56.5 185t-174 308.5t-175 321t-57.5 240.5z" />
    <glyph glyph-name="dieresis" unicode="&#xa8;" 
d="M-10 1286q0 34 24.5 59t57.5 25t57.5 -25t24.5 -59t-24 -58t-58 -24t-58 24t-24 58zM379 1286q0 34 24.5 59t57.5 25t57.5 -25t24.5 -59t-24 -58t-58 -24t-58 24t-24 58z" />
    <glyph glyph-name="copyright" unicode="&#xa9;" horiz-adv-x="1638" 
d="M1143 924h-29q-4 82 -62 138t-200 56t-223.5 -101t-82.5 -278t83.5 -285t266.5 -108t253 182h29l-35 -166q-135 -59 -271 -59t-239.5 44t-165 142t-61.5 250q0 97 54 195t160.5 162.5t256.5 64.5q89 0 165.5 -27t100.5 -59v-151zM818 39q182 0 332.5 89.5t237.5 247.5
t87 325t-49.5 291.5t-140 220t-211 148t-256.5 52.5q-278 0 -466 -196.5t-188 -489.5q0 -193 86.5 -350.5t236 -247.5t331.5 -90zM820 -27q-202 0 -374 101.5t-272 275.5t-100 352t58 316t161 241.5t240 161.5t287 58t287.5 -58.5t239.5 -161t160 -241.5t58 -291
q0 -204 -100 -377.5t-271.5 -275t-373.5 -101.5z" />
    <glyph glyph-name="ordfeminine" unicode="&#xaa;" horiz-adv-x="616" 
d="M582 879q-9 -37 -56 -37q-25 0 -55 26t-39 64h-2q-63 -90 -215 -90q-92 0 -136 42.5t-44 108.5t45.5 131t339.5 97v41q0 124 -156 124q-44 0 -58 -16t-31 -50t-37 -34t-21 17q0 8 8 32l29 117h98q129 0 187.5 -33t58.5 -116v-285q0 -48 6.5 -79t77.5 -60zM420 1030v121
q0 16 -25 16q-64 -1 -144 -27q-81 -26 -109.5 -58t-28.5 -78t37.5 -71.5t95.5 -25.5t116 34.5t58 88.5z" />
    <glyph glyph-name="guillemotleft" unicode="&#xab;" horiz-adv-x="834" 
d="M621 174l-222 318l222 319h81l-221 -319l221 -318h-81zM352 174l-221 318l221 319h82l-221 -319l221 -318h-82z" />
    <glyph glyph-name="logicalnot" unicode="&#xac;" horiz-adv-x="1229" 
d="M1030 223v455h-934v92h1037v-547h-103z" />
    <glyph glyph-name="registered" unicode="&#xae;" horiz-adv-x="1638" 
d="M818 39q182 0 332.5 89.5t237.5 247.5t87 325t-49.5 291.5t-140 220t-211 148t-256.5 52.5q-278 0 -466 -196.5t-188 -489.5q0 -193 86.5 -350.5t236 -247.5t331.5 -90zM820 -27q-202 0 -374 101.5t-272 275.5t-100 352t58 316t161 241.5t240 161.5t287 58t287.5 -58.5
t239.5 -161t160 -241.5t58 -291q0 -204 -100 -377.5t-271.5 -275t-373.5 -101.5zM705 1100v-361h104q164 0 164 199q0 86 -48 124t-124 38h-96zM578 475v524q0 59 -4.5 77.5t-21 23.5t-75.5 12v31h363q110 0 185 -50.5t75 -140.5q0 -174 -182 -237l129 -187
q71 -103 106.5 -137t65.5 -41v-16h-117q-46 0 -101 82l-178 280h-118v-221q0 -57 5 -75t23 -23.5t80 -14.5v-28h-336v28q57 8 74.5 14t22 24t4.5 75z" />
    <glyph glyph-name="macron" unicode="&#xaf;" 
d="M2 1241v78h528v-78h-528z" />
    <glyph glyph-name="degree" unicode="&#xb0;" horiz-adv-x="819" 
d="M182 1184q0 -62 31 -115t82.5 -84t113.5 -31t114.5 31t83 84t30.5 115t-30.5 114.5t-83 83.5t-114.5 31t-113.5 -31t-82.5 -83.5t-31 -114.5zM117 1184q0 123 86 209t207 86q81 0 147.5 -39.5t105.5 -107t39 -148.5t-39 -149t-107 -108t-146 -40t-146.5 40t-107.5 108
t-39 149z" />
    <glyph glyph-name="plusminus" unicode="&#xb1;" horiz-adv-x="1229" 
d="M96 0v90h1037v-90h-1037zM569 662v385h90v-385h474v-91h-474v-385h-90v385h-473v91h473z" />
    <glyph glyph-name="twosuperior" unicode="&#xb2;" horiz-adv-x="692" 
d="M399 571h-223q-71 0 -127 -12v35q182 164 285 272.5t146.5 189t43.5 144.5t-37.5 132.5t-149.5 68.5t-171.5 -62.5t-59.5 -156.5q0 -6 -6 -10.5t-10 -4.5q-24 -1 -24 63t38 123.5t104 92.5t145 33t137.5 -29t91 -82.5t32.5 -121.5q0 -130 -92.5 -247.5t-369.5 -361.5h268
q59 0 90.5 21.5t61.5 75.5t36.5 61.5t20.5 7.5t14 -15q0 -4 -37.5 -78.5t-60.5 -150.5q-76 12 -146 12z" />
    <glyph glyph-name="threesuperior" unicode="&#xb3;" horiz-adv-x="692" 
d="M314 612q76 0 130.5 28t87.5 73t33 107t-54 131t-222 69q-86 0 -150 -23l37 93q60 -17 120 -17t114.5 17.5t91.5 57.5t37 111t-56.5 112.5t-124.5 41.5t-149.5 -28.5t-81.5 -149.5q0 -15 -4.5 -21t-20.5 -6t-16 60q0 211 266 211q110 0 181 -55.5t71 -159.5
q0 -143 -149 -197v-4q90 -21 139 -82t49 -145t-42.5 -145t-114.5 -96.5t-174 -35.5t-182.5 53t-80.5 135t43 82q37 0 48.5 -13t11.5 -38l-5 -41q0 -48 45.5 -86.5t121.5 -38.5z" />
    <glyph glyph-name="acute" unicode="&#xb4;" 
d="M506 1493q20 0 36.5 -15.5t16.5 -37.5t-20 -40.5t-80 -58.5l-281 -180h-61l295 271q44 39 59 50t35 11z" />
    <glyph glyph-name="mu" unicode="&#xb5;" horiz-adv-x="1139" 
d="M1055 114q0 -6 -33 -30l-156 -102q-12 -9 -22 -9t-22 12l-13 13q0 1 9 32t9 68t-4 56q-83 -100 -172.5 -140.5t-142.5 -40.5q-153 0 -217 117h-4q0 -143 8 -317t8 -224q0 -98 -59 -98q-43 0 -51.5 34t-8.5 70t14.5 225t14.5 290v673q0 50 -4.5 62t-20.5 12l-98 -12
q-14 0 -14 19t4.5 25.5t17.5 12.5l193 90q15 6 28 6q19 0 19 -32q0 -2 -11.5 -33.5t-11.5 -71.5v-506q0 -117 53 -184.5t160 -67.5q70 0 156 45.5t139 118.5v576q0 19 -13 23.5t-39 4.5t-39 3.5t-13 23.5t7 25t45 9t78 14t73.5 31t35.5 21t12.5 -7.5t10.5 -19.5
q0 -13 -18 -28.5t-27.5 -28.5t-9.5 -40v-666q0 -68 18 -68l84 47q7 0 17 -13.5t10 -19.5zM809 2z" />
    <glyph glyph-name="paragraph" unicode="&#xb6;" horiz-adv-x="1229" 
d="M535 -377v998q-282 0 -351 155.5t-69 289.5t67.5 273.5t360.5 139.5h493v-41q-144 -11 -159 -46t-15 -85v-1684q0 -49 15.5 -83.5t158.5 -45.5v-43h-264v1962h-147v-1962h-265v43q144 11 159.5 45.5t15.5 83.5zM535 686v727q-152 0 -222.5 -83.5t-70.5 -272.5t81 -280
t212 -91z" />
    <glyph glyph-name="cedilla" unicode="&#xb8;" 
d="M266 -377q135 0 135 90t-110 90q-27 0 -62 -14l-22 10l88 201h70l-60 -137q28 6 62 6q161 0 161 -143q0 -79 -63 -123.5t-162 -44.5t-176 30l18 60q73 -25 121 -25z" />
    <glyph glyph-name="onesuperior" unicode="&#xb9;" horiz-adv-x="692" 
d="M178 584q0 25 17 28q67 9 95.5 20.5t36 32.5t7.5 66v631l-137 -115q-26 -22 -32 -22t-16 13t-10 20t27 28l231 193h25q-10 -54 -10 -142v-645q0 -23 13 -42t112 -38q16 -3 16 -28t-10 -25l-68 6q-69 6 -104 6l-181 -12q-12 0 -12 25z" />
    <glyph glyph-name="ordmasculine" unicode="&#xba;" horiz-adv-x="737" 
d="M371 842q-87 0 -157.5 36.5t-111.5 105.5t-41 163q0 140 88.5 222.5t221.5 82.5q182 0 243.5 -105t61.5 -199t-40.5 -164t-109 -106t-155.5 -36zM369 895q107 0 168 78.5t61 182.5t-58 173.5t-170 69.5t-171.5 -69.5t-59.5 -173.5t61.5 -182.5t168.5 -78.5z" />
    <glyph glyph-name="guillemotright" unicode="&#xbb;" horiz-adv-x="834" 
d="M131 174l221 318l-221 319h82l221 -319l-221 -318h-82zM399 174l222 318l-222 319h82l221 -319l-221 -318h-82z" />
    <glyph glyph-name="onequarter" unicode="&#xbc;" horiz-adv-x="1593" 
d="M178 584q0 25 17 28q67 9 95.5 20.5t36 32.5t7.5 66v631l-137 -115q-26 -22 -32 -22t-16 13t-10 20t27 28l231 193h25q-10 -54 -10 -142v-645q0 -23 13 -42t112 -38q16 -3 16 -28t-10 -25l-68 6q-69 6 -104 6l-181 -12q-12 0 -12 25zM352 -59l799 1591h78l-797 -1591h-80
zM1495 244h-76v-170q0 -59 -24 -74h-88q34 51 34 137v107h-401q-31 0 -31 20q0 8 15 29l407 563q33 51 66 51q10 0 22.5 -5.5t12.5 -9.5t-6.5 -41.5t-6.5 -74.5v-465l107 6q18 1 18 -37t-18 -38q-16 2 -31 2zM1341 311v473h-4l-342 -473h346z" />
    <glyph glyph-name="onehalf" unicode="&#xbd;" horiz-adv-x="1593" 
d="M178 584q0 25 17 28q67 9 95.5 20.5t36 32.5t7.5 66v631l-137 -115q-26 -22 -32 -22t-16 13t-10 20t27 28l231 193h25q-10 -54 -10 -142v-645q0 -23 13 -42t112 -38q16 -3 16 -28t-10 -25l-68 6q-69 6 -104 6l-181 -12q-12 0 -12 25zM1300 0h-223q-71 0 -127 -12v35
q270 242 372.5 373t102.5 231t-53.5 151t-149.5 51t-155 -62.5t-59 -156.5q0 -4 -7 -9t-10 -5q-24 0 -24 63t37.5 122t105 92.5t145.5 33.5t136.5 -28.5t91.5 -82.5t33 -152t-93 -216t-370 -362h268q58 0 90.5 22t58.5 72t36 60.5t24 10.5t14 -14q0 -5 -37.5 -78.5
t-60.5 -150.5q-76 12 -146 12zM352 -59l799 1591h78l-797 -1591h-80z" />
    <glyph glyph-name="threequarters" unicode="&#xbe;" horiz-adv-x="1593" 
d="M314 612q76 0 130.5 28t87.5 73t33 107t-54 131t-222 69q-86 0 -150 -23l37 93q60 -17 120 -17t114.5 17.5t91.5 57.5t37 111t-56.5 112.5t-124.5 41.5t-149.5 -28.5t-81.5 -149.5q0 -15 -4.5 -21t-20.5 -6t-16 60q0 211 266 211q110 0 181 -55.5t71 -159.5
q0 -143 -149 -197v-4q90 -21 139 -82t49 -145t-42.5 -145t-114.5 -96.5t-174 -35.5t-182.5 53t-80.5 135t43 82q37 0 48.5 -13t11.5 -38l-5 -41q0 -48 45.5 -86.5t121.5 -38.5zM414 -59l798 1591h78l-796 -1591h-80zM1495 244h-76v-170q0 -59 -24 -74h-88q34 51 34 137v107
h-401q-31 0 -31 20q0 8 15 29l407 563q33 51 66 51q10 0 22.5 -5.5t12.5 -9.5t-6.5 -41.5t-6.5 -74.5v-465l107 6q18 1 18 -37t-18 -38q-16 2 -31 2zM1341 311v473h-4l-342 -473h346z" />
    <glyph glyph-name="questiondown" unicode="&#xbf;" horiz-adv-x="948" 
d="M592 852q0 -38 -26 -65t-65 -27t-66 27t-27 65t27.5 66t65.5 28t64.5 -28t26.5 -66zM479 608q96 0 180.5 -41t137.5 -118t53 -187t-62 -184.5t-187 -146.5t-167.5 -103.5t-42.5 -87.5t39.5 -95.5t89.5 -39.5l103 8q12 0 12 -8t-66 -81t-72 -73t-58 41.5t-95 100
t-43 135.5t57.5 123.5t184 111t190.5 132.5t64 192q0 74 -47.5 133t-120.5 91t-151 32t-164.5 -32.5t-153.5 -88.5l-62 70q143 116 381 116z" />
    <glyph glyph-name="Agrave" unicode="&#xc0;" horiz-adv-x="1403" 
d="M410 1832q0 14 16 30t42 16t89 -61l295 -271h-61l-281 183q-77 47 -88.5 68t-11.5 35zM1029.5 -26.5q-13.5 0.5 -13.5 24.5t6 31t40 12q66 10 66 57q0 48 -41 150l-141 360h-520l-133 -350q-39 -102 -39 -152t76 -67q29 -6 35 -10.5t6 -30.5t-17 -25q-3 0 -72.5 13.5
t-109.5 13.5t-104.5 -13.5t-69.5 -13.5q-16 -1 -16 25t6 31t50 17t77 44t87 166t126 314.5t157.5 398t137.5 363.5q52 147 69.5 146.5t25.5 -28.5t98.5 -254t229.5 -564t170 -412t50.5 -106t48 -48t86.5 -27q20 -5 20 -35t-16 -31l-85 13q-86 14 -116 14t-95.5 -13.5
t-79 -13zM684 1278l-227 -592h458z" />
    <glyph glyph-name="Aacute" unicode="&#xc1;" horiz-adv-x="1403" 
d="M942 1878q20 0 36.5 -15t16.5 -37t-23.5 -43t-76.5 -54l-281 -183h-61l295 271q44 39 59 50t35 11zM1029.5 -26.5q-13.5 0.5 -13.5 24.5t6 31t40 12q66 10 66 57q0 48 -41 150l-141 360h-520l-133 -350q-39 -102 -39 -152t76 -67q29 -6 35 -10.5t6 -30.5t-17 -25
q-3 0 -72.5 13.5t-109.5 13.5t-104.5 -13.5t-69.5 -13.5q-16 -1 -16 25t6 31t50 17t77 44t87 166t126 314.5t157.5 398t137.5 363.5q52 147 69.5 146.5t25.5 -28.5t98.5 -254t229.5 -564t170 -412t50.5 -106t48 -48t86.5 -27q20 -5 20 -35t-16 -31l-85 13q-86 14 -116 14
t-95.5 -13.5t-79 -13zM684 1278l-227 -592h458z" />
    <glyph glyph-name="Acircumflex" unicode="&#xc2;" horiz-adv-x="1403" 
d="M410 1546l249 332h86l250 -332h-45l-248 215l-247 -215h-45zM1029.5 -26.5q-13.5 0.5 -13.5 24.5t6 31t40 12q66 10 66 57q0 48 -41 150l-141 360h-520l-133 -350q-39 -102 -39 -152t76 -67q29 -6 35 -10.5t6 -30.5t-17 -25q-3 0 -72.5 13.5t-109.5 13.5t-104.5 -13.5
t-69.5 -13.5q-16 -1 -16 25t6 31t50 17t77 44t87 166t126 314.5t157.5 398t137.5 363.5q52 147 69.5 146.5t25.5 -28.5t98.5 -254t229.5 -564t170 -412t50.5 -106t48 -48t86.5 -27q20 -5 20 -35t-16 -31l-85 13q-86 14 -116 14t-95.5 -13.5t-79 -13zM684 1278l-227 -592h458
z" />
    <glyph glyph-name="Atilde" unicode="&#xc3;" horiz-adv-x="1403" 
d="M590 1782q51 0 139 -45q74 -45 115 -45q82 0 131 104h45q-17 -81 -72 -137.5t-133 -56.5q-37 0 -65 10t-79 36t-73.5 35t-48.5 9q-80 0 -119 -95h-45q58 185 205 185zM1029.5 -26.5q-13.5 0.5 -13.5 24.5t6 31t40 12q66 10 66 57q0 48 -41 150l-141 360h-520l-133 -350
q-39 -102 -39 -152t76 -67q29 -6 35 -10.5t6 -30.5t-17 -25q-3 0 -72.5 13.5t-109.5 13.5t-104.5 -13.5t-69.5 -13.5q-16 -1 -16 25t6 31t50 17t77 44t87 166t126 314.5t157.5 398t137.5 363.5q52 147 69.5 146.5t25.5 -28.5t98.5 -254t229.5 -564t170 -412t50.5 -106
t48 -48t86.5 -27q20 -5 20 -35t-16 -31l-85 13q-86 14 -116 14t-95.5 -13.5t-79 -13zM684 1278l-227 -592h458z" />
    <glyph glyph-name="Adieresis" unicode="&#xc4;" horiz-adv-x="1403" 
d="M426 1672q0 34 24.5 58.5t57.5 24.5t57.5 -24.5t24.5 -58.5t-24 -58.5t-58 -24.5t-58 24.5t-24 58.5zM815 1672q0 34 24.5 58.5t57.5 24.5t57.5 -24.5t24.5 -58.5t-24 -58.5t-58 -24.5t-58 24.5t-24 58.5zM1029.5 -26.5q-13.5 0.5 -13.5 24.5t6 31t40 12q66 10 66 57
q0 48 -41 150l-141 360h-520l-133 -350q-39 -102 -39 -152t76 -67q29 -6 35 -10.5t6 -30.5t-17 -25q-3 0 -72.5 13.5t-109.5 13.5t-104.5 -13.5t-69.5 -13.5q-16 -1 -16 25t6 31t50 17t77 44t87 166t126 314.5t157.5 398t137.5 363.5q52 147 69.5 146.5t25.5 -28.5
t98.5 -254t229.5 -564t170 -412t50.5 -106t48 -48t86.5 -27q20 -5 20 -35t-16 -31l-85 13q-86 14 -116 14t-95.5 -13.5t-79 -13zM684 1278l-227 -592h458z" />
    <glyph glyph-name="Aring" unicode="&#xc5;" horiz-adv-x="1403" 
d="M573 1716q0 -54 37.5 -92.5t82.5 -38.5t74.5 17t46.5 46.5t17 65.5t-26.5 83.5t-91.5 47.5q-66 0 -103 -37.5t-37 -91.5zM508 1702q0 66 26 111t71 71.5t97 26.5t97 -26.5t71.5 -71.5t26.5 -111t-58.5 -124t-136.5 -58t-136 58t-58 124zM1029.5 -26.5
q-13.5 0.5 -13.5 24.5t6 31t40 12q66 10 66 57q0 48 -41 150l-141 360h-520l-133 -350q-39 -102 -39 -152t76 -67q29 -6 35 -10.5t6 -30.5t-17 -25q-3 0 -72.5 13.5t-109.5 13.5t-104.5 -13.5t-69.5 -13.5q-16 -1 -16 25t6 31t50 17t77 44t87 166t126 314.5t157.5 398
t137.5 363.5q52 147 69.5 146.5t25.5 -28.5t98.5 -254t229.5 -564t170 -412t50.5 -106t48 -48t86.5 -27q20 -5 20 -35t-16 -31l-85 13q-86 14 -116 14t-95.5 -13.5t-79 -13zM684 1278l-227 -592h458z" />
    <glyph glyph-name="AE" unicode="&#xc6;" horiz-adv-x="1858" 
d="M692 1280l-268 -719h532zM1784 258q6 10 34 10t27 -19q0 -10 -27.5 -106.5t-37.5 -169.5q-292 27 -413 27t-237 -14l-108 -13q-21 1 -21 25t8.5 31t40.5 10t50 21t18 42t-20 72l-113 307h-590l-104 -278q-21 -52 -21 -87t22 -50.5t58 -23.5t41.5 -13.5t5.5 -30.5t-22 -25
q-1 0 -74 13.5t-119 13.5t-114 -14l-68 -13q-20 0 -20 37q0 21 52 32t85.5 31.5t58 64.5t55.5 134l367 990q12 34 20.5 56t8.5 46q0 42 -109 49q-56 5 -71 9.5t-15 21.5v20q0 15 24 15q24 1 151 -13t224 -14l486 12q22 0 30.5 -9t8.5 -30v-36l14 -168q0 -19 -39 -19
q-11 0 -15.5 10t-29.5 80q-31 94 -119 94h-409l229 -618h348q58 0 66 53q10 82 19 89.5t22 7.5q37 0 37 -25l-13 -166q0 -42 6.5 -88.5t6.5 -62.5t-6 -23.5t-33 -7.5q-27 -1 -27 29t-12 65q-21 49 -62 49h-323l192 -512q16 -43 48.5 -71.5t168.5 -28.5q135 0 196 11t95 40
t48 75t20 56z" />
    <glyph glyph-name="Ccedilla" unicode="&#xc7;" horiz-adv-x="1479" 
d="M788 -377q136 0 136 90t-111 90q-27 0 -61 -14l-23 10l77 177q-137 10 -265 66q-129 56 -273.5 217t-144.5 460q0 200 81 373t247 280t403 107q155 0 299.5 -21t192.5 -28l8 -211q0 -21 -6 -28t-26 -7t-28 18t-18 74t-104.5 96.5t-286.5 40.5q-193 0 -342.5 -84.5
t-227 -235t-77.5 -343.5q0 -259 108 -419t264 -226t310 -66t261 44.5t132 139.5q14 54 23 69t24 15q39 0 39 -31q0 -23 -10 -65l-43 -182q-186 -56 -467 -56h-4l-48 -110q28 6 62 6q162 0 162 -143q0 -79 -63.5 -123.5t-162.5 -44.5t-176 30l19 60q73 -25 120 -25z" />
    <glyph glyph-name="Egrave" unicode="&#xc8;" horiz-adv-x="1100" 
d="M258 1832q0 15 16.5 30.5t41.5 15.5t90 -61l294 -271h-61l-281 183q-77 47 -88.5 67.5t-11.5 35.5zM69.5 -27q-16.5 0 -16.5 26t11 32t67 8t83.5 11.5t37.5 33t10 78.5v1153q0 53 -23 73t-85 23t-70 8t-8 19q0 41 24 41q14 1 106 -13t173 -14l457 12q45 0 45 -41l18 -198
q-2 -21 -45 -21q-21 0 -27 33.5t-12 54.5q-25 94 -104 94h-346v-618h409q58 0 66 53q10 82 19 89.5t22 7.5q37 0 37 -25l-13 -166q0 -42 6.5 -89t6.5 -62t-7 -23t-33 -8q-26 -1 -26 29t-12 65q-21 49 -62 49h-413v-395q0 -105 24 -152.5t87 -62.5t203 -15t203.5 26t84.5 89
t26.5 72.5t16.5 9.5q45 0 45 -29q0 -5 -27 -98t-39 -160q-321 27 -493 27t-239 -5.5t-119 -13.5t-68.5 -8z" />
    <glyph glyph-name="Eacute" unicode="&#xc9;" horiz-adv-x="1100" 
d="M791 1878q20 0 36.5 -15t16.5 -37t-24 -43.5t-77 -53.5l-280 -183h-62l295 271q39 35 57 48t38 13zM69.5 -27q-16.5 0 -16.5 26t11 32t67 8t83.5 11.5t37.5 33t10 78.5v1153q0 53 -23 73t-85 23t-70 8t-8 19q0 41 24 41q14 1 106 -13t173 -14l457 12q45 0 45 -41l18 -198
q-2 -21 -45 -21q-21 0 -27 33.5t-12 54.5q-25 94 -104 94h-346v-618h409q58 0 66 53q10 82 19 89.5t22 7.5q37 0 37 -25l-13 -166q0 -42 6.5 -89t6.5 -62t-7 -23t-33 -8q-26 -1 -26 29t-12 65q-21 49 -62 49h-413v-395q0 -105 24 -152.5t87 -62.5t203 -15t203.5 26t84.5 89
t26.5 72.5t16.5 9.5q45 0 45 -29q0 -5 -27 -98t-39 -160q-321 27 -493 27t-239 -5.5t-119 -13.5t-68.5 -8z" />
    <glyph glyph-name="Ecircumflex" unicode="&#xca;" horiz-adv-x="1100" 
d="M258 1546l250 332h86l250 -332h-45l-248 215l-248 -215h-45zM69.5 -27q-16.5 0 -16.5 26t11 32t67 8t83.5 11.5t37.5 33t10 78.5v1153q0 53 -23 73t-85 23t-70 8t-8 19q0 41 24 41q14 1 106 -13t173 -14l457 12q45 0 45 -41l18 -198q-2 -21 -45 -21q-21 0 -27 33.5
t-12 54.5q-25 94 -104 94h-346v-618h409q58 0 66 53q10 82 19 89.5t22 7.5q37 0 37 -25l-13 -166q0 -42 6.5 -89t6.5 -62t-7 -23t-33 -8q-26 -1 -26 29t-12 65q-21 49 -62 49h-413v-395q0 -105 24 -152.5t87 -62.5t203 -15t203.5 26t84.5 89t26.5 72.5t16.5 9.5q45 0 45 -29
q0 -5 -27 -98t-39 -160q-321 27 -493 27t-239 -5.5t-119 -13.5t-68.5 -8z" />
    <glyph glyph-name="Edieresis" unicode="&#xcb;" horiz-adv-x="1100" 
d="M274 1672q0 34 24.5 58.5t57.5 24.5t57.5 -24.5t24.5 -58.5t-24 -58.5t-58 -24.5t-58 24.5t-24 58.5zM664 1672q0 34 24 58.5t58 24.5t57.5 -24.5t23.5 -58.5t-22.5 -58.5t-58.5 -24.5t-59 24.5t-23 58.5zM69.5 -27q-16.5 0 -16.5 26t11 32t67 8t83.5 11.5t37.5 33
t10 78.5v1153q0 53 -23 73t-85 23t-70 8t-8 19q0 41 24 41q14 1 106 -13t173 -14l457 12q45 0 45 -41l18 -198q-2 -21 -45 -21q-21 0 -27 33.5t-12 54.5q-25 94 -104 94h-346v-618h409q58 0 66 53q10 82 19 89.5t22 7.5q37 0 37 -25l-13 -166q0 -42 6.5 -89t6.5 -62t-7 -23
t-33 -8q-26 -1 -26 29t-12 65q-21 49 -62 49h-413v-395q0 -105 24 -152.5t87 -62.5t203 -15t203.5 26t84.5 89t26.5 72.5t16.5 9.5q45 0 45 -29q0 -5 -27 -98t-39 -160q-321 27 -493 27t-239 -5.5t-119 -13.5t-68.5 -8z" />
    <glyph glyph-name="Igrave" unicode="&#xcc;" horiz-adv-x="606" 
d="M10 1826q0 22 16.5 37t41.5 15t90 -61l295 -271h-62l-280 183q-53 32 -77 53.5t-24 43.5zM252 176v1100q0 56 -19 80t-71 37l-78 20q-27 6 -27 25q0 41 17 41q4 0 99 -13.5t130 -13.5t130 13.5t99 13.5q17 0 17 -41q0 -19 -27 -25l-78 -20q-52 -14 -71 -37.5t-19 -79.5
v-1100q0 -70 27 -88.5t63 -28.5l78 -20q27 -6 27 -25q0 -41 -17 -41q4 0 -91 13.5t-138 13.5t-138 -14l-91 -13q-17 0 -17 41q0 19 27 25l78 20q52 15 71 39t19 78z" />
    <glyph glyph-name="Iacute" unicode="&#xcd;" horiz-adv-x="606" 
d="M596 1826q0 -22 -23.5 -43t-76.5 -54l-281 -183h-61l295 271q63 61 88.5 61t42 -15t16.5 -37zM252 176v1100q0 56 -19 80t-71 37l-78 20q-27 6 -27 25q0 41 17 41q4 0 99 -13.5t130 -13.5t130 13.5t99 13.5q17 0 17 -41q0 -19 -27 -25l-78 -20q-52 -14 -71 -37.5
t-19 -79.5v-1100q0 -70 27 -88.5t63 -28.5l78 -20q27 -6 27 -25q0 -41 -17 -41q4 0 -91 13.5t-138 13.5t-138 -14l-91 -13q-17 0 -17 41q0 19 27 25l78 20q52 15 71 39t19 78z" />
    <glyph glyph-name="Icircumflex" unicode="&#xce;" horiz-adv-x="606" 
d="M10 1546l250 332h86l250 -332h-45l-248 215l-248 -215h-45zM252 176v1100q0 56 -19 80t-71 37l-78 20q-27 6 -27 25q0 41 17 41q4 0 99 -13.5t130 -13.5t130 13.5t99 13.5q17 0 17 -41q0 -19 -27 -25l-78 -20q-52 -14 -71 -37.5t-19 -79.5v-1100q0 -70 27 -88.5t63 -28.5
l78 -20q27 -6 27 -25q0 -41 -17 -41q4 0 -91 13.5t-138 13.5t-138 -14l-91 -13q-17 0 -17 41q0 19 27 25l78 20q52 15 71 39t19 78z" />
    <glyph glyph-name="Idieresis" unicode="&#xcf;" horiz-adv-x="606" 
d="M27 1672q0 34 24.5 58.5t58.5 24.5t57 -24.5t23 -58.5t-23 -58.5t-57 -24.5t-58.5 24.5t-24.5 58.5zM416 1672q0 34 24.5 58.5t57.5 24.5t57.5 -24.5t24.5 -58.5t-24 -58.5t-58 -24.5t-58 24.5t-24 58.5zM252 176v1100q0 56 -19 80t-71 37l-78 20q-27 6 -27 25
q0 41 17 41q4 0 99 -13.5t130 -13.5t130 13.5t99 13.5q17 0 17 -41q0 -19 -27 -25l-78 -20q-52 -14 -71 -37.5t-19 -79.5v-1100q0 -70 27 -88.5t63 -28.5l78 -20q27 -6 27 -25q0 -41 -17 -41q4 0 -91 13.5t-138 13.5t-138 -14l-91 -13q-17 0 -17 41q0 19 27 25l78 20
q52 15 71 39t19 78z" />
    <glyph glyph-name="Eth" unicode="&#xd0;" horiz-adv-x="1630" 
d="M33 741q0 21 18 21h232v565q1 79 -119 85q-58 2 -66 7t-8 19q0 41 22 41q22 1 104 -13t126 -14t87 2t119 6t230 4q321 0 525 -196t204 -533t-205.5 -549.5t-568.5 -212.5q-30 0 -158 13.5t-205 13.5t-185.5 -13.5t-124.5 -13.5q-31 0 -31 29q0 21 11.5 28.5t73.5 9.5
t101.5 14t53.5 41t14 91v508h-232q-18 0 -18 21v26zM385 694v-413q0 -186 119 -214t233 -28q203 0 352 85t226.5 239t77.5 356q0 259 -100.5 404.5t-228 210.5t-310.5 65h-316q-30 0 -41.5 -5.5t-11.5 -23.5v-608h381q18 0 18 -21v-26q0 -21 -18 -21h-381z" />
    <glyph glyph-name="Ntilde" unicode="&#xd1;" horiz-adv-x="1593" 
d="M684 1782q51 0 139 -45q74 -45 115 -45q84 0 131 104h45q-17 -81 -72 -137.5t-133 -56.5q-37 0 -65 10t-79 36t-73.5 35t-48.5 9q-80 0 -119 -95h-45q58 185 205 185zM51 3q0 18 7.5 22.5t61.5 16.5t77 40.5t24 112.5v1263q1 33 11 33t63 -66l983 -1230h4v1034
q0 73 -8.5 102t-40.5 46t-87 29t-62 18t-7 30t27 25q27 0 105 -13.5t118 -13.5l197 27q13 0 15.5 -5t2.5 -24t-8 -24.5t-52 -14.5t-66.5 -23t-32 -43t-11.5 -88v-1265q0 -39 -16 -39q-11 0 -28 18t-79 92l-934 1176h-4v-1016q0 -73 8.5 -102t40.5 -46t88 -29t62 -17.5
t6 -30.5t-20 -25q-26 0 -105 13.5t-125 13.5l-196 -27q-12 0 -15.5 6t-3.5 24z" />
    <glyph glyph-name="Ograve" unicode="&#xd2;" horiz-adv-x="1704" 
d="M559 1832q0 15 16.5 30.5t41.5 15.5t90 -61l294 -271h-61l-281 183q-77 47 -88.5 67.5t-11.5 35.5zM225 740q0 -201 79 -353.5t222 -238t326 -85.5t326 85.5t222 237.5t79 328t-55 302.5t-145 207.5t-202.5 123t-244.5 42t-276.5 -74.5t-237.5 -224t-93 -350.5zM123 704
q0 356 218 565.5t511 209.5q188 0 356.5 -93.5t270.5 -265.5t102 -390t-92.5 -391t-259.5 -269.5t-377 -96.5t-377 96.5t-259.5 269.5t-92.5 365z" />
    <glyph glyph-name="Oacute" unicode="&#xd3;" horiz-adv-x="1704" 
d="M1092 1878q20 0 36.5 -15t16.5 -37t-24 -43.5t-77 -53.5l-280 -183h-62l295 271q39 35 57 48t38 13zM225 740q0 -201 79 -353.5t222 -238t326 -85.5t326 85.5t222 237.5t79 328t-55 302.5t-145 207.5t-202.5 123t-244.5 42t-276.5 -74.5t-237.5 -224t-93 -350.5zM123 704
q0 356 218 565.5t511 209.5q188 0 356.5 -93.5t270.5 -265.5t102 -390t-92.5 -391t-259.5 -269.5t-377 -96.5t-377 96.5t-259.5 269.5t-92.5 365z" />
    <glyph glyph-name="Ocircumflex" unicode="&#xd4;" horiz-adv-x="1704" 
d="M559 1546l250 332h86l250 -332h-45l-248 215l-248 -215h-45zM225 740q0 -201 79 -353.5t222 -238t326 -85.5t326 85.5t222 237.5t79 328t-55 302.5t-145 207.5t-202.5 123t-244.5 42t-276.5 -74.5t-237.5 -224t-93 -350.5zM123 704q0 356 218 565.5t511 209.5
q188 0 356.5 -93.5t270.5 -265.5t102 -390t-92.5 -391t-259.5 -269.5t-377 -96.5t-377 96.5t-259.5 269.5t-92.5 365z" />
    <glyph glyph-name="Otilde" unicode="&#xd5;" horiz-adv-x="1704" 
d="M962 1602q-55 0 -124 36t-91.5 45t-48.5 9q-81 0 -118 -95h-45q25 88 78.5 136.5t115.5 48.5t150 -45q74 -45 114 -45q84 0 131 104h45q-24 -114 -88 -154t-119 -40zM225 740q0 -201 79 -353.5t222 -238t326 -85.5t326 85.5t222 237.5t79 328t-55 302.5t-145 207.5
t-202.5 123t-244.5 42t-276.5 -74.5t-237.5 -224t-93 -350.5zM123 704q0 356 218 565.5t511 209.5q188 0 356.5 -93.5t270.5 -265.5t102 -390t-92.5 -391t-259.5 -269.5t-377 -96.5t-377 96.5t-259.5 269.5t-92.5 365z" />
    <glyph glyph-name="Odieresis" unicode="&#xd6;" horiz-adv-x="1704" 
d="M575 1672q0 34 24.5 58.5t57.5 24.5t57.5 -24.5t24.5 -58.5t-24 -58.5t-58 -24.5t-58 24.5t-24 58.5zM965 1672q0 34 24.5 58.5t58.5 24.5t57 -24.5t23 -58.5t-23 -58.5t-57 -24.5t-58.5 24.5t-24.5 58.5zM225 740q0 -201 79 -353.5t222 -238t326 -85.5t326 85.5
t222 237.5t79 328t-55 302.5t-145 207.5t-202.5 123t-244.5 42t-276.5 -74.5t-237.5 -224t-93 -350.5zM123 704q0 356 218 565.5t511 209.5q188 0 356.5 -93.5t270.5 -265.5t102 -390t-92.5 -391t-259.5 -269.5t-377 -96.5t-377 96.5t-259.5 269.5t-92.5 365z" />
    <glyph glyph-name="multiply" unicode="&#xd7;" horiz-adv-x="1229" 
d="M551 524l-395 398l63 65l395 -399l396 399l63 -65l-395 -398l395 -399l-63 -66l-396 400l-395 -400l-63 66z" />
    <glyph glyph-name="Oslash" unicode="&#xd8;" horiz-adv-x="1704" 
d="M852 -27q-292 0 -490 179l-178 -199q-10 -12 -26 -12t-25.5 9.5t-9.5 21.5t8 22l184 205q-192 205 -192 528q0 168 60 308t218 292t451 152q183 0 303.5 -65t179.5 -120l189 193q12 12 24 12t24.5 -9.5t12.5 -23.5t-8 -20l-193 -199q197 -212 197 -520q0 -215 -92.5 -388
t-259.5 -269.5t-377 -96.5zM852 63q183 0 326 85.5t222 238t79 342.5q0 267 -158 451l-891 -957q171 -160 422 -160zM852 1389q-152 0 -296.5 -74.5t-237.5 -224t-93 -361.5q0 -271 158 -459l889 957q-117 105 -232.5 133.5t-187.5 28.5z" />
    <glyph glyph-name="Ugrave" unicode="&#xd9;" horiz-adv-x="1556" 
d="M485 1826q0 22 16.5 37t41.5 15t90 -61l295 -271h-62l-280 183q-53 32 -77 53.5t-24 43.5zM779 -27q-188 0 -299 84t-156.5 202t-59.5 230q-28 218 -49 820q-2 52 -17.5 69.5t-69.5 31.5t-54 26q0 28 3 35.5t17 7.5t84 -13.5t111 -13.5t111 13.5t100 13.5q18 0 18 -28
t-3 -32.5t-65 -15.5t-91 -30t-29 -87q0 -271 24 -709q14 -262 128.5 -400t297.5 -138q139 0 278.5 93t162.5 427q16 245 16 289v391q0 66 -6.5 96.5t-29 45.5t-64.5 27t-48 18t-6 30t21 23q11 0 76.5 -13.5t102.5 -13.5t106 13.5t79 13.5t12.5 -6t2.5 -25t-6 -24.5
t-52 -17.5t-66 -30.5t-20 -66.5q0 -470 -41 -787q-14 -118 -61.5 -240.5t-158.5 -215.5t-299 -93z" />
    <glyph glyph-name="Uacute" unicode="&#xda;" horiz-adv-x="1556" 
d="M1018 1878q20 0 36.5 -15t16.5 -37t-23.5 -43t-76.5 -54l-281 -183h-61l295 271q44 39 59 50t35 11zM779 -27q-188 0 -299 84t-156.5 202t-59.5 230q-28 218 -49 820q-2 52 -17.5 69.5t-69.5 31.5t-54 26q0 28 3 35.5t17 7.5t84 -13.5t111 -13.5t111 13.5t100 13.5
q18 0 18 -28t-3 -32.5t-65 -15.5t-91 -30t-29 -87q0 -271 24 -709q14 -262 128.5 -400t297.5 -138q139 0 278.5 93t162.5 427q16 245 16 289v391q0 66 -6.5 96.5t-29 45.5t-64.5 27t-48 18t-6 30t21 23q11 0 76.5 -13.5t102.5 -13.5t106 13.5t79 13.5t12.5 -6t2.5 -25
t-6 -24.5t-52 -17.5t-66 -30.5t-20 -66.5q0 -470 -41 -787q-14 -118 -61.5 -240.5t-158.5 -215.5t-299 -93z" />
    <glyph glyph-name="Ucircumflex" unicode="&#xdb;" horiz-adv-x="1556" 
d="M485 1546l250 332h86l250 -332h-45l-248 215l-248 -215h-45zM779 -27q-188 0 -299 84t-156.5 202t-59.5 230q-28 218 -49 820q-2 52 -17.5 69.5t-69.5 31.5t-54 26q0 28 3 35.5t17 7.5t84 -13.5t111 -13.5t111 13.5t100 13.5q18 0 18 -28t-3 -32.5t-65 -15.5t-91 -30
t-29 -87q0 -271 24 -709q14 -262 128.5 -400t297.5 -138q139 0 278.5 93t162.5 427q16 245 16 289v391q0 66 -6.5 96.5t-29 45.5t-64.5 27t-48 18t-6 30t21 23q11 0 76.5 -13.5t102.5 -13.5t106 13.5t79 13.5t12.5 -6t2.5 -25t-6 -24.5t-52 -17.5t-66 -30.5t-20 -66.5
q0 -470 -41 -787q-14 -118 -61.5 -240.5t-158.5 -215.5t-299 -93z" />
    <glyph glyph-name="Udieresis" unicode="&#xdc;" horiz-adv-x="1556" 
d="M502 1672q0 34 24.5 58.5t57.5 24.5t57.5 -24.5t24.5 -58.5t-24 -58.5t-58 -24.5t-58 24.5t-24 58.5zM891 1672q0 34 24.5 58.5t57.5 24.5t57.5 -24.5t24.5 -58.5t-24 -58.5t-58 -24.5t-58 24.5t-24 58.5zM779 -27q-188 0 -299 84t-156.5 202t-59.5 230q-28 218 -49 820
q-2 52 -17.5 69.5t-69.5 31.5t-54 26q0 28 3 35.5t17 7.5t84 -13.5t111 -13.5t111 13.5t100 13.5q18 0 18 -28t-3 -32.5t-65 -15.5t-91 -30t-29 -87q0 -271 24 -709q14 -262 128.5 -400t297.5 -138q139 0 278.5 93t162.5 427q16 245 16 289v391q0 66 -6.5 96.5t-29 45.5
t-64.5 27t-48 18t-6 30t21 23q11 0 76.5 -13.5t102.5 -13.5t106 13.5t79 13.5t12.5 -6t2.5 -25t-6 -24.5t-52 -17.5t-66 -30.5t-20 -66.5q0 -470 -41 -787q-14 -118 -61.5 -240.5t-158.5 -215.5t-299 -93z" />
    <glyph glyph-name="Yacute" unicode="&#xdd;" horiz-adv-x="1290" 
d="M946 1878q20 0 36.5 -15t16.5 -37t-23.5 -43t-76.5 -54l-281 -183h-61l295 271q44 39 59 50t35 11zM594 176v412l-490 766q-15 24 -29 32t-48 18t-43 17t-9 33t25 25l62 -13q62 -14 103 -14q40 0 110 14l67 13q12 0 16 -6.5t4 -26.5t-7 -26t-45 -14t-59.5 -13.5
t-21.5 -24.5q0 -2 25 -47l403 -641l363 584q47 76 47 96t-15.5 29t-65.5 23t-50 30q0 24 6.5 30.5t22.5 6.5t77.5 -13.5t87.5 -13.5t87 13.5t71 13.5q27 0 27 -19v-24q0 -9 -9.5 -13t-41.5 -11t-56.5 -26t-62.5 -81l-449 -717v-412q0 -70 27 -88.5t63 -28.5l78 -20
q27 -6 27 -25q0 -41 -17 -41q4 0 -91 13.5t-138 13.5t-138 -14l-91 -13q-17 0 -17 41q0 19 27 25l78 20q52 15 71 39t19 78z" />
    <glyph glyph-name="Thorn" unicode="&#xde;" horiz-adv-x="1063" 
d="M94 -2q0 25 5 30.5t47 16.5t69 24t37 36t10 75v1096q0 56 -18.5 79.5t-71.5 37.5l-78 20q-26 6 -26 25q0 41 16 41q3 0 97.5 -13.5t130.5 -13.5t132 13.5t99 13.5q16 0 16 -41q0 -19 -27 -25l-77 -20q-52 -13 -71 -37t-19 -80v-141q115 14 213 14q189 0 302 -96t113 -267
q0 -115 -56.5 -202t-158 -134t-235.5 -47q-34 0 -83.5 28t-49.5 44q0 8 14 8l121 -14q111 0 228.5 61t117.5 228q0 168 -106.5 245.5t-262.5 77.5t-157 -28v-824q0 -75 22.5 -111.5t70.5 -52t104 -21.5t61.5 -12t5.5 -32t-23 -27q6 0 -113 13.5t-166 13.5t-135 -14l-83 -13
q-15 0 -15 25z" />
    <glyph glyph-name="germandbls" unicode="&#xdf;" horiz-adv-x="1214" 
d="M737 1238q0 247 -202 247q-220 0 -220 -289v-1063q0 -30 14.5 -51t133.5 -43q26 -5 33.5 -10t7.5 -23t-4 -25.5t-22 -7.5t-95.5 13.5t-108.5 13.5l-202 -27q-17 -1 -17 23t6.5 30t58.5 21t72.5 29.5t20.5 48.5v659q0 23 -12 23h-66q-14 1 -14 19t18 30l54 41
q13 8 16.5 26t3.5 64v125q0 218 94 335.5t254 117.5q74 0 138.5 -29.5t102.5 -87.5t38 -126t-16 -116t-48 -114t-45.5 -105.5t-13.5 -85.5t41.5 -89.5t157.5 -145.5t174.5 -179t58.5 -164t-43 -168.5t-120.5 -131.5t-169.5 -50t-156 39t-64 105q0 27 16.5 42t43.5 15
t39.5 -16t32 -54t43 -57.5t71.5 -19.5q92 0 148.5 83t56.5 174t-55.5 163t-166.5 169.5t-154.5 144.5t-43.5 95t20.5 93t40.5 89q50 112 49 200z" />
    <glyph glyph-name="agrave" unicode="&#xe0;" horiz-adv-x="948" 
d="M182 1440q0 22 16.5 37.5t41.5 15.5t90 -61l295 -271h-62l-280 182q-57 37 -79 56t-22 41zM748 694v-415q0 -87 6.5 -124.5t33.5 -64.5t89 -55q-7 -28 -28 -45t-47 -17t-60.5 24.5t-58.5 63t-28 78.5h-4q-102 -166 -319 -166q-129 0 -194.5 71t-65.5 173q0 129 116.5 209
t456.5 125v106q0 97 -57.5 153t-181.5 56q-57 0 -91 -22q-16 -13 -24.5 -33t-23.5 -58.5t-23 -45.5t-36 -7t-28 24t13 60l45 162h139q192 0 281.5 -56t89.5 -196zM645 254v201q0 28 -35 28q-87 0 -217 -43t-174.5 -94.5t-44.5 -131.5t57 -121.5t147 -41.5t178.5 57.5
t88.5 145.5z" />
    <glyph glyph-name="aacute" unicode="&#xe1;" horiz-adv-x="948" 
d="M768 1440q0 -22 -21.5 -41.5t-78.5 -55.5l-281 -182h-61l295 271q63 61 88.5 61t42 -15.5t16.5 -37.5zM748 694v-415q0 -87 6.5 -124.5t33.5 -64.5t89 -55q-7 -28 -28 -45t-47 -17t-60.5 24.5t-58.5 63t-28 78.5h-4q-102 -166 -319 -166q-129 0 -194.5 71t-65.5 173
q0 129 116.5 209t456.5 125v106q0 97 -57.5 153t-181.5 56q-57 0 -91 -22q-16 -13 -24.5 -33t-23.5 -58.5t-23 -45.5t-36 -7t-28 24t13 60l45 162h139q192 0 281.5 -56t89.5 -196zM645 254v201q0 28 -35 28q-87 0 -217 -43t-174.5 -94.5t-44.5 -131.5t57 -121.5t147 -41.5
t178.5 57.5t88.5 145.5z" />
    <glyph glyph-name="acircumflex" unicode="&#xe2;" horiz-adv-x="948" 
d="M182 1161l250 332h86l250 -332h-45l-248 215l-248 -215h-45zM748 694v-415q0 -87 6.5 -124.5t33.5 -64.5t89 -55q-7 -28 -28 -45t-47 -17t-60.5 24.5t-58.5 63t-28 78.5h-4q-102 -166 -319 -166q-129 0 -194.5 71t-65.5 173q0 129 116.5 209t456.5 125v106
q0 97 -57.5 153t-181.5 56q-57 0 -91 -22q-16 -13 -24.5 -33t-23.5 -58.5t-23 -45.5t-36 -7t-28 24t13 60l45 162h139q192 0 281.5 -56t89.5 -196zM645 254v201q0 28 -35 28q-87 0 -217 -43t-174.5 -94.5t-44.5 -131.5t57 -121.5t147 -41.5t178.5 57.5t88.5 145.5z" />
    <glyph glyph-name="atilde" unicode="&#xe3;" horiz-adv-x="948" 
d="M362 1397q52 0 140 -45q74 -45 114 -45q83 0 132 104h45q-28 -117 -90.5 -155.5t-117.5 -38.5t-124 36t-91.5 45t-47.5 9q-82 0 -119 -95h-45q56 185 204 185zM748 694v-415q0 -87 6.5 -124.5t33.5 -64.5t89 -55q-7 -28 -28 -45t-47 -17t-60.5 24.5t-58.5 63t-28 78.5h-4
q-102 -166 -319 -166q-129 0 -194.5 71t-65.5 173q0 129 116.5 209t456.5 125v106q0 97 -57.5 153t-181.5 56q-57 0 -91 -22q-16 -13 -24.5 -33t-23.5 -58.5t-23 -45.5t-36 -7t-28 24t13 60l45 162h139q192 0 281.5 -56t89.5 -196zM645 254v201q0 28 -35 28q-87 0 -217 -43
t-174.5 -94.5t-44.5 -131.5t57 -121.5t147 -41.5t178.5 57.5t88.5 145.5z" />
    <glyph glyph-name="adieresis" unicode="&#xe4;" horiz-adv-x="948" 
d="M199 1266q0 34 24.5 59t58.5 25t57 -25t23 -59t-23 -58t-57 -24t-58.5 24t-24.5 58zM588 1266q0 34 24.5 59t57.5 25t57.5 -25t24.5 -59t-24 -58t-58 -24t-58 24t-24 58zM748 694v-415q0 -87 6.5 -124.5t33.5 -64.5t89 -55q-7 -28 -28 -45t-47 -17t-60.5 24.5t-58.5 63
t-28 78.5h-4q-102 -166 -319 -166q-129 0 -194.5 71t-65.5 173q0 129 116.5 209t456.5 125v106q0 97 -57.5 153t-181.5 56q-57 0 -91 -22q-16 -13 -24.5 -33t-23.5 -58.5t-23 -45.5t-36 -7t-28 24t13 60l45 162h139q192 0 281.5 -56t89.5 -196zM645 254v201q0 28 -35 28
q-87 0 -217 -43t-174.5 -94.5t-44.5 -131.5t57 -121.5t147 -41.5t178.5 57.5t88.5 145.5z" />
    <glyph glyph-name="aring" unicode="&#xe5;" horiz-adv-x="948" 
d="M322 1310q0 -44 38 -82t82 -38t74 17.5t47 46t17 65.5t-17 66.5t-46.5 47t-65.5 17.5t-65.5 -17t-46.5 -48t-17 -75zM256 1320q0 52 42.5 124t152.5 72q51 0 96 -26.5t71.5 -72t26.5 -97.5t-26 -97t-71.5 -72t-97.5 -27t-96.5 26.5t-71 72t-26.5 97.5zM748 694v-415
q0 -87 6.5 -124.5t33.5 -64.5t89 -55q-7 -28 -28 -45t-47 -17t-60.5 24.5t-58.5 63t-28 78.5h-4q-102 -166 -319 -166q-129 0 -194.5 71t-65.5 173q0 129 116.5 209t456.5 125v106q0 97 -57.5 153t-181.5 56q-57 0 -91 -22q-16 -13 -24.5 -33t-23.5 -58.5t-23 -45.5t-36 -7
t-28 24t13 60l45 162h139q192 0 281.5 -56t89.5 -196zM645 254v201q0 28 -35 28q-87 0 -217 -43t-174.5 -94.5t-44.5 -131.5t57 -121.5t147 -41.5t178.5 57.5t88.5 145.5z" />
    <glyph glyph-name="ae" unicode="&#xe6;" horiz-adv-x="1479" 
d="M645 254v201q0 28 -35 28q-87 0 -217 -43t-174.5 -94.5t-44.5 -131.5t57 -121.5t145 -41.5t178.5 57t90.5 146zM1401 172q-188 -199 -358 -199q-88 0 -190.5 40t-156.5 169q-61 -94 -158.5 -151.5t-215.5 -57.5t-184 71t-66 173q0 129 116.5 209t456.5 125v106
q0 97 -57.5 153t-181.5 56q-57 0 -91 -22q-16 -13 -24.5 -33t-23.5 -58.5t-23 -45.5t-36 -7t-28 24t13 60l45 162h139q165 0 254.5 -41t111.5 -139q124 180 306 180q96 0 203.5 -63t107.5 -256q0 -25 -23 -27l-596 -98q0 -439 322 -439q152 0 305 146zM1245 696
q0 76 -54 129.5t-138 53.5t-148.5 -44.5t-106.5 -117t-48 -150.5l432 78q41 7 52 17t11 34z" />
    <glyph glyph-name="ccedilla" unicode="&#xe7;" horiz-adv-x="909" 
d="M447 -377q143 0 143 90t-111 90q-27 0 -61 -14l-23 10l77 176q-106 9 -190 68q-83 60 -125 161.5t-42 229.5t42.5 231.5t138.5 192t253 88.5q81 0 170.5 -30t89.5 -92t-49 -62q-30 0 -77.5 34t-82 52t-115.5 18t-146 -63.5t-93.5 -159t-28.5 -179.5q0 -167 90 -284
t236 -117q70 0 148 27.5t118 75.5l27 -43q-130 -136 -294 -149l-48 -111q27 6 61 6q162 0 162 -143q0 -79 -63 -123.5t-162 -44.5t-177 30l19 60q73 -25 113 -25z" />
    <glyph glyph-name="egrave" unicode="&#xe8;" horiz-adv-x="948" 
d="M182 1440q0 22 16.5 37.5t41.5 15.5t90 -61l295 -271h-62l-280 182q-57 37 -79 56t-22 41zM715 696q0 76 -54 129.5t-157 53.5t-185 -94.5t-94 -217.5l426 78q42 7 53 17t11 34zM532 63q153 0 306 146l32 -37q-89 -94 -179.5 -146.5t-204.5 -52.5t-200 61t-128.5 163.5
t-42.5 206.5q0 207 109.5 374.5t293.5 167.5q97 0 204 -63t107 -256q0 -25 -22 -27l-590 -98q0 -439 315 -439z" />
    <glyph glyph-name="eacute" unicode="&#xe9;" horiz-adv-x="948" 
d="M768 1440q0 -22 -21.5 -41.5t-78.5 -55.5l-281 -182h-61l295 271q63 61 88.5 61t42 -15.5t16.5 -37.5zM715 696q0 76 -54 129.5t-157 53.5t-185 -94.5t-94 -217.5l426 78q42 7 53 17t11 34zM532 63q153 0 306 146l32 -37q-89 -94 -179.5 -146.5t-204.5 -52.5t-200 61
t-128.5 163.5t-42.5 206.5q0 207 109.5 374.5t293.5 167.5q97 0 204 -63t107 -256q0 -25 -22 -27l-590 -98q0 -439 315 -439z" />
    <glyph glyph-name="ecircumflex" unicode="&#xea;" horiz-adv-x="948" 
d="M182 1161l250 332h86l250 -332h-45l-248 215l-248 -215h-45zM715 696q0 76 -54 129.5t-157 53.5t-185 -94.5t-94 -217.5l426 78q42 7 53 17t11 34zM532 63q153 0 306 146l32 -37q-89 -94 -179.5 -146.5t-204.5 -52.5t-200 61t-128.5 163.5t-42.5 206.5q0 207 109.5 374.5
t293.5 167.5q97 0 204 -63t107 -256q0 -25 -22 -27l-590 -98q0 -439 315 -439z" />
    <glyph glyph-name="edieresis" unicode="&#xeb;" horiz-adv-x="948" 
d="M199 1266q0 34 24.5 59t58.5 25t57 -25t23 -59t-23 -58t-57 -24t-58.5 24t-24.5 58zM588 1266q0 34 24.5 59t57.5 25t57.5 -25t24.5 -59t-24 -58t-58 -24t-58 24t-24 58zM715 696q0 76 -54 129.5t-157 53.5t-185 -94.5t-94 -217.5l426 78q42 7 53 17t11 34zM532 63
q153 0 306 146l32 -37q-89 -94 -179.5 -146.5t-204.5 -52.5t-200 61t-128.5 163.5t-42.5 206.5q0 207 109.5 374.5t293.5 167.5q97 0 204 -63t107 -256q0 -25 -22 -27l-590 -98q0 -439 315 -439z" />
    <glyph glyph-name="igrave" unicode="&#xec;" horiz-adv-x="530" 
d="M-29 1440q0 22 16.5 37.5t41.5 15.5t90 -61l295 -271h-62l-280 182q-57 37 -79 56t-22 41zM477 28q8 -5 8 -30t-20 -25q-12 0 -85 13.5t-116 13.5t-115.5 -13.5t-84.5 -13.5q-22 0 -21 37q0 13 7.5 17.5t53.5 14.5t71.5 24t31.5 37.5t6 82.5v557q0 50 -4.5 62t-20.5 12
l-98 -12q-14 0 -14 19t4.5 25.5t17.5 12.5l193 90q15 6 28 6q19 0 19 -32q0 -2 -11.5 -33.5t-11.5 -71.5v-635q0 -59 6 -82.5t32 -37t71 -23.5t53 -15z" />
    <glyph glyph-name="iacute" unicode="&#xed;" horiz-adv-x="530" 
d="M557 1440q0 -22 -21.5 -41.5t-78.5 -55.5l-281 -182h-61l295 271q63 61 88.5 61t42 -15.5t16.5 -37.5zM477 28q8 -5 8 -30t-20 -25q-12 0 -85 13.5t-116 13.5t-115.5 -13.5t-84.5 -13.5q-22 0 -21 37q0 13 7.5 17.5t53.5 14.5t71.5 24t31.5 37.5t6 82.5v557q0 50 -4.5 62
t-20.5 12l-98 -12q-14 0 -14 19t4.5 25.5t17.5 12.5l193 90q15 6 28 6q19 0 19 -32q0 -2 -11.5 -33.5t-11.5 -71.5v-635q0 -59 6 -82.5t32 -37t71 -23.5t53 -15z" />
    <glyph glyph-name="icircumflex" unicode="&#xee;" horiz-adv-x="530" 
d="M-29 1161l250 332h86l250 -332h-45l-248 215l-248 -215h-45zM477 28q8 -5 8 -30t-20 -25q-12 0 -85 13.5t-116 13.5t-115.5 -13.5t-84.5 -13.5q-22 0 -21 37q0 13 7.5 17.5t53.5 14.5t71.5 24t31.5 37.5t6 82.5v557q0 50 -4.5 62t-20.5 12l-98 -12q-14 0 -14 19t4.5 25.5
t17.5 12.5l193 90q15 6 28 6q19 0 19 -32q0 -2 -11.5 -33.5t-11.5 -71.5v-635q0 -59 6 -82.5t32 -37t71 -23.5t53 -15z" />
    <glyph glyph-name="idieresis" unicode="&#xef;" horiz-adv-x="530" 
d="M-12 1266q0 34 24.5 59t57.5 25t57.5 -25t24.5 -59t-24 -58t-58 -24t-58 24t-24 58zM377 1266q0 34 24.5 59t57.5 25t57.5 -25t24.5 -59t-24 -58t-58 -24t-58 24t-24 58zM477 28q8 -5 8 -30t-20 -25q-12 0 -85 13.5t-116 13.5t-115.5 -13.5t-84.5 -13.5q-22 0 -21 37
q0 13 7.5 17.5t53.5 14.5t71.5 24t31.5 37.5t6 82.5v557q0 50 -4.5 62t-20.5 12l-98 -12q-14 0 -14 19t4.5 25.5t17.5 12.5l193 90q15 6 28 6q19 0 19 -32q0 -2 -11.5 -33.5t-11.5 -71.5v-635q0 -59 6 -82.5t32 -37t71 -23.5t53 -15z" />
    <glyph glyph-name="eth" unicode="&#xf0;" horiz-adv-x="1139" 
d="M908 1491q4 0 12 -6l28 -35q4 -8 4 -11t-4 -7l-229 -129q101 -104 203 -305t102 -490q0 -169 -61.5 -290.5t-165 -183t-228.5 -61.5t-228 59.5t-164.5 170.5t-61.5 257t61.5 257t165 170t227.5 59q186 0 303 -141l5 4q-74 279 -236 451l-240 -134q-8 -4 -12 -4t-10 6
l-29 37q-4 3 -4 9t4 10l236 129q-130 127 -322 205l60 47q142 -63 338 -207l235 129q7 4 11 4zM217 459q0 -96 40.5 -190.5t120.5 -156t191 -61.5t191.5 61.5t121 156t40.5 190.5q0 179 -89.5 293t-262.5 114t-263 -115t-90 -292z" />
    <glyph glyph-name="ntilde" unicode="&#xf1;" horiz-adv-x="1139" 
d="M457 1397q51 0 139 -45q74 -45 115 -45q82 0 131 104h45q-17 -81 -72 -137.5t-133 -56.5q-37 0 -65 10.5t-79 36.5t-73.5 34.5t-48.5 8.5q-80 0 -119 -95h-45q58 185 205 185zM477 28q8 -5 8 -30t-20 -25q-12 0 -85 13.5t-116 13.5t-115.5 -13.5t-84.5 -13.5
q-22 0 -21 37q0 13 7.5 17.5t53.5 14.5t71.5 24t31.5 37.5t6 82.5v557q0 50 -4.5 62t-20.5 12l-98 -12q-14 0 -14 19t4.5 25.5t17.5 12.5l193 90q17 6 21 6t11 -12t7 -20q-15 -42 -15 -113v-49q103 114 178.5 148t141.5 34q135 0 213 -105t78 -343v-312q0 -59 6 -82.5
t32 -37t71 -23.5t53 -15t8 -30t-21 -25q-12 0 -85.5 13.5t-115.5 13.5t-115 -13.5t-85 -13.5q-21 0 -21 25t8.5 30t52.5 15t70.5 23.5t32.5 37t6 82.5v324q0 181 -59 262.5t-186 81.5q-76 0 -155 -57t-108 -105v-506q0 -59 6 -82.5t32 -37t71 -23.5t53 -15z" />
    <glyph glyph-name="ograve" unicode="&#xf2;" horiz-adv-x="1139" 
d="M276 1440q0 22 16.5 37.5t41.5 15.5t90 -61l295 -271h-62l-280 182q-57 37 -79 56t-22 41zM1024 443q0 -129 -63 -239.5t-167 -170.5t-212 -60q-210 0 -338.5 132.5t-128.5 353.5q0 147 61.5 258t165.5 170t214 59t193 -33t145.5 -97.5t96 -154t33.5 -218.5zM922 459
q0 179 -89.5 293t-262.5 114t-263 -115t-90 -292q0 -96 40.5 -190.5t120.5 -156t191 -61.5t191.5 61.5t121 156t40.5 190.5z" />
    <glyph glyph-name="oacute" unicode="&#xf3;" horiz-adv-x="1139" 
d="M810 1493q20 0 36 -15t16 -37t-21.5 -42t-78.5 -56l-281 -182h-61l295 271q44 39 59.5 50t35.5 11zM1024 443q0 -129 -63 -239.5t-167 -170.5t-212 -60q-210 0 -338.5 132.5t-128.5 353.5q0 147 61.5 258t165.5 170t214 59t193 -33t145.5 -97.5t96 -154t33.5 -218.5z
M922 459q0 179 -89.5 293t-262.5 114t-263 -115t-90 -292q0 -96 40.5 -190.5t120.5 -156t191 -61.5t191.5 61.5t121 156t40.5 190.5z" />
    <glyph glyph-name="ocircumflex" unicode="&#xf4;" horiz-adv-x="1139" 
d="M276 1161l250 332h86l250 -332h-45l-248 215l-247 -215h-46zM1024 443q0 -129 -63 -239.5t-167 -170.5t-212 -60q-210 0 -338.5 132.5t-128.5 353.5q0 147 61.5 258t165.5 170t214 59t193 -33t145.5 -97.5t96 -154t33.5 -218.5zM922 459q0 179 -89.5 293t-262.5 114
t-263 -115t-90 -292q0 -96 40.5 -190.5t120.5 -156t191 -61.5t191.5 61.5t121 156t40.5 190.5z" />
    <glyph glyph-name="otilde" unicode="&#xf5;" horiz-adv-x="1139" 
d="M457 1397q51 0 139 -45q74 -45 115 -45q82 0 131 104h45q-17 -81 -72 -137.5t-133 -56.5q-37 0 -65 10.5t-79 36.5t-73.5 34.5t-48.5 8.5q-80 0 -119 -95h-45q58 185 205 185zM1024 443q0 -129 -63 -239.5t-167 -170.5t-212 -60q-210 0 -338.5 132.5t-128.5 353.5
q0 147 61.5 258t165.5 170t214 59t193 -33t145.5 -97.5t96 -154t33.5 -218.5zM922 459q0 179 -89.5 293t-262.5 114t-263 -115t-90 -292q0 -96 40.5 -190.5t120.5 -156t191 -61.5t191.5 61.5t121 156t40.5 190.5z" />
    <glyph glyph-name="odieresis" unicode="&#xf6;" horiz-adv-x="1139" 
d="M293 1266q0 34 24.5 59t57.5 25t57.5 -25t24.5 -59t-24 -58t-58 -24t-58 24t-24 58zM682 1266q0 34 24.5 59t57.5 25t57.5 -25t24.5 -59t-24 -58t-58 -24t-58 24t-24 58zM1024 443q0 -129 -63 -239.5t-167 -170.5t-212 -60q-210 0 -338.5 132.5t-128.5 353.5
q0 147 61.5 258t165.5 170t214 59t193 -33t145.5 -97.5t96 -154t33.5 -218.5zM922 459q0 179 -89.5 293t-262.5 114t-263 -115t-90 -292q0 -96 40.5 -190.5t120.5 -156t191 -61.5t191.5 61.5t121 156t40.5 190.5z" />
    <glyph glyph-name="divide" unicode="&#xf7;" horiz-adv-x="1229" 
d="M512 90q0 44 29 74.5t65 30.5t73.5 -21.5t37.5 -74.5t-29.5 -82t-73.5 -29t-73 29t-29 73zM512 956q0 44 29 73.5t61 29.5q57 0 86 -29.5t29 -73.5t-29.5 -74t-73.5 -30t-73 30t-29 74zM1133 477h-1037v92h1037v-92z" />
    <glyph glyph-name="oslash" unicode="&#xf8;" horiz-adv-x="1139" 
d="M569 -27q-180 0 -303 117l-143 -149q-9 -13 -20 -13t-23 12t-12 20t8 15l149 160q-110 128 -110 324q0 147 61.5 258t165 170t227.5 59q179 0 303 -119l140 148q10 12 20 12t22.5 -9.5t12.5 -19.5t-8 -18l-146 -156q111 -124 111 -325q0 -146 -61.5 -256.5t-165.5 -170
t-228 -59.5zM561 866q-164 0 -254 -115t-90 -273t78 -269l522 559q-92 98 -256 98zM569 51q111 0 191.5 61.5t121 156t40.5 190.5q0 159 -68 260l-524 -559q91 -109 239 -109z" />
    <glyph glyph-name="ugrave" unicode="&#xf9;" horiz-adv-x="1139" 
d="M276 1440q0 22 16.5 37.5t41.5 15.5t90 -61l295 -271h-62l-280 182q-57 37 -79 56t-22 41zM1055 114q0 -6 -33 -30l-156 -102q-12 -9 -22 -9t-22 12l-13 13q0 1 9 32t9 68t-4 56q-83 -100 -172.5 -140.5t-142.5 -40.5q-141 0 -218 88.5t-77 227.5v454q0 50 -4.5 62
t-20.5 12l-98 -12q-14 0 -14 19t4.5 25.5t17.5 12.5l193 90q15 6 28 6q19 0 19 -32q0 -2 -11.5 -33.5t-11.5 -71.5v-506q0 -117 53 -184.5t160 -67.5q70 0 156 45.5t139 118.5v576q0 19 -13 23.5t-39 4.5t-39 3.5t-13 23.5t7 25t45 9t78 14t73.5 31t35.5 21t12.5 -7.5
t10.5 -19.5q0 -13 -18 -28.5t-27.5 -28.5t-9.5 -40v-666q0 -68 18 -68l84 47q7 0 17 -13.5t10 -19.5zM809 2z" />
    <glyph glyph-name="uacute" unicode="&#xfa;" horiz-adv-x="1139" 
d="M810 1493q20 0 36 -15t16 -37t-21.5 -42t-78.5 -56l-281 -182h-61l295 271q44 39 59.5 50t35.5 11zM1055 114q0 -6 -33 -30l-156 -102q-12 -9 -22 -9t-22 12l-13 13q0 1 9 32t9 68t-4 56q-83 -100 -172.5 -140.5t-142.5 -40.5q-141 0 -218 88.5t-77 227.5v454
q0 50 -4.5 62t-20.5 12l-98 -12q-14 0 -14 19t4.5 25.5t17.5 12.5l193 90q15 6 28 6q19 0 19 -32q0 -2 -11.5 -33.5t-11.5 -71.5v-506q0 -117 53 -184.5t160 -67.5q70 0 156 45.5t139 118.5v576q0 19 -13 23.5t-39 4.5t-39 3.5t-13 23.5t7 25t45 9t78 14t73.5 31t35.5 21
t12.5 -7.5t10.5 -19.5q0 -13 -18 -28.5t-27.5 -28.5t-9.5 -40v-666q0 -68 18 -68l84 47q7 0 17 -13.5t10 -19.5zM809 2z" />
    <glyph glyph-name="ucircumflex" unicode="&#xfb;" horiz-adv-x="1139" 
d="M276 1161l250 332h86l250 -332h-45l-248 215l-247 -215h-46zM1055 114q0 -6 -33 -30l-156 -102q-12 -9 -22 -9t-22 12l-13 13q0 1 9 32t9 68t-4 56q-83 -100 -172.5 -140.5t-142.5 -40.5q-141 0 -218 88.5t-77 227.5v454q0 50 -4.5 62t-20.5 12l-98 -12q-14 0 -14 19
t4.5 25.5t17.5 12.5l193 90q15 6 28 6q19 0 19 -32q0 -2 -11.5 -33.5t-11.5 -71.5v-506q0 -117 53 -184.5t160 -67.5q70 0 156 45.5t139 118.5v576q0 19 -13 23.5t-39 4.5t-39 3.5t-13 23.5t7 25t45 9t78 14t73.5 31t35.5 21t12.5 -7.5t10.5 -19.5q0 -13 -18 -28.5
t-27.5 -28.5t-9.5 -40v-666q0 -68 18 -68l84 47q7 0 17 -13.5t10 -19.5zM809 2z" />
    <glyph glyph-name="udieresis" unicode="&#xfc;" horiz-adv-x="1139" 
d="M293 1266q0 34 24.5 59t57.5 25t57.5 -25t24.5 -59t-24 -58t-58 -24t-58 24t-24 58zM682 1266q0 34 24.5 59t57.5 25t57.5 -25t24.5 -59t-24 -58t-58 -24t-58 24t-24 58zM1055 114q0 -6 -33 -30l-156 -102q-12 -9 -22 -9t-22 12l-13 13q0 1 9 32t9 68t-4 56
q-83 -100 -172.5 -140.5t-142.5 -40.5q-141 0 -218 88.5t-77 227.5v454q0 50 -4.5 62t-20.5 12l-98 -12q-14 0 -14 19t4.5 25.5t17.5 12.5l193 90q15 6 28 6q19 0 19 -32q0 -2 -11.5 -33.5t-11.5 -71.5v-506q0 -117 53 -184.5t160 -67.5q70 0 156 45.5t139 118.5v576
q0 19 -13 23.5t-39 4.5t-39 3.5t-13 23.5t7 25t45 9t78 14t73.5 31t35.5 21t12.5 -7.5t10.5 -19.5q0 -13 -18 -28.5t-27.5 -28.5t-9.5 -40v-666q0 -68 18 -68l84 47q7 0 17 -13.5t10 -19.5zM809 2z" />
    <glyph glyph-name="yacute" unicode="&#xfd;" horiz-adv-x="1100" 
d="M791 1493q20 0 36.5 -15.5t16.5 -37.5t-22 -41t-79 -56l-280 -182h-62l295 271q39 35 57 48t38 13zM893 821q0 20 -12.5 32t-56.5 29q-44 18 -44 22t8 23t11 19q15 0 63 -14t82 -14t90 14t66 14t10 -39q0 -3 -19 -9.5t-35 -18.5t-32 -36q-17 -24 -56.5 -99.5
t-263.5 -502.5t-359 -608.5t-279 -181.5q-43 0 -43 94q0 17 12.5 23.5t54.5 11.5q96 10 156.5 58.5t152.5 209.5l93 162q-177 390 -400 809q-22 43 -60 59t-38 26q0 12 6 27t11 15t42.5 -14t86.5 -14q50 0 112 14t66 14t12 -14t8 -25t-58 -33t-59 -55q0 -22 23 -69t35 -76
l270 -563q344 636 344 710z" />
    <glyph glyph-name="thorn" unicode="&#xfe;" horiz-adv-x="1139" 
d="M305 311q0 -167 86.5 -219.5t182.5 -52.5t179 64.5t126 170.5t43 214t-31 185t-97 123t-148 46t-151.5 -33t-122 -88.5t-67.5 -120.5v-289zM434 -459q0 -23 -16 -30l-201 -76q-20 -10 -28 -10t-13.5 12.5t-5.5 20.5t16.5 21.5t16.5 31.5v1873q0 31 -39 31l-64 -4
q-18 1 -18 25t18 32l162 70q56 27 64 27t16 -12.5t8 -24.5t-17 -20t-22.5 -24.5t-5.5 -68.5v-696h4q147 227 361 227q109 0 190 -57t122.5 -150t41.5 -197q0 -217 -131.5 -393t-343.5 -176q-167 0 -240 97h-4v-451q0 -36 8 -47.5t31 -11.5l45 2q45 2 45 -21z" />
    <glyph glyph-name="ydieresis" unicode="&#xff;" horiz-adv-x="1100" 
d="M274 1266q0 34 24.5 59t57.5 25t57.5 -25t24.5 -59t-24 -58t-58 -24t-58 24t-24 58zM664 1266q0 34 24 59t58 25t57.5 -25t23.5 -59t-22.5 -58t-58.5 -24t-59 24t-23 58zM893 821q0 20 -12.5 32t-56.5 29q-44 18 -44 22t8 23t11 19q15 0 63 -14t82 -14t90 14t66 14
t10 -39q0 -3 -19 -9.5t-35 -18.5t-32 -36q-17 -24 -56.5 -99.5t-263.5 -502.5t-359 -608.5t-279 -181.5q-43 0 -43 94q0 17 12.5 23.5t54.5 11.5q96 10 156.5 58.5t152.5 209.5l93 162q-177 390 -400 809q-22 43 -60 59t-38 26q0 12 6 27t11 15t42.5 -14t86.5 -14
q50 0 112 14t66 14t12 -14t8 -25t-58 -33t-59 -55q0 -22 23 -69t35 -76l270 -563q344 636 344 710z" />
    <glyph glyph-name="dotlessi" unicode="&#x131;" horiz-adv-x="528" 
d="M477 28q8 -5 8 -30t-20 -25q-12 0 -85 13.5t-116 13.5t-115.5 -13.5t-84.5 -13.5q-22 0 -21 37q0 13 7.5 17.5t53.5 14.5t71.5 24t31.5 37t6 81v551q0 50 -4.5 62t-20.5 12l-98 -12q-14 0 -14 19t4.5 25.5t17.5 12.5l193 88q15 6 28 6q19 0 19 -30q0 -2 -11.5 -33.5
t-11.5 -71.5v-629q0 -58 6 -81t32 -36.5t71 -23.5t53 -15z" />
    <glyph glyph-name="Lslash" unicode="&#x141;" horiz-adv-x="1063" 
d="M45 -27q-16 0 -16 33t8 33l115 12q62 7 86 25t24 76v469l-199 -123q-33 -23 -40 -23t-7 17v40q0 23 17 33l229 144v555q0 54 -18.5 78t-71.5 36l-78 21q-26 6 -26 24q0 41 16 41q10 0 101 -13t127 -13t128.5 13t102.5 13q16 0 16 -41q0 -18 -27 -24l-77 -21
q-51 -12 -70.5 -36t-19.5 -78v-492l385 242q32 20 40 20t9 -16v-41q0 -23 -17 -33l-417 -260v-438q0 -69 26 -105t91.5 -50.5t175.5 -14.5t195.5 16t117.5 121q13 43 20 56.5t23 13.5t28.5 -8.5t12.5 -15.5t-27 -104t-39 -182q-458 48 -697.5 24t-246.5 -24z" />
    <glyph glyph-name="lslash" unicode="&#x142;" horiz-adv-x="528" 
d="M477 28q8 -5 8 -30t-20 -25q-12 0 -85 13.5t-116 13.5t-115.5 -13.5t-84.5 -13.5q-22 0 -21 37q0 13 7.5 17.5t53.5 14.5t71.5 24t31.5 37t6 81v496l-141 -121q-20 -16 -29 -18q-16 0 -16 14v55q0 15 22 33l164 139v588q0 31 -39 31l-63 -4q-19 1 -19 25t19 32l161 70
q58 24 65 24t15 -11t8 -23t-17 -20t-22.5 -24.5t-5.5 -68.5v-531l144 123q15 15 29 17t14 -13v-55q0 -12 -23 -33l-164 -141v-584q0 -58 6 -81t32 -36.5t71 -23.5t53 -15z" />
    <glyph glyph-name="OE" unicode="&#x152;" horiz-adv-x="2316" 
d="M2122 727l12 -155q0 -12 -6 -19.5t-33 -7.5q-27 -1 -27 29t-12 65q-21 49 -61 49h-414v-395q0 -99 24 -143.5t87.5 -59t203.5 -14.5t203 26t87 98t40 72q45 0 45 -22q0 -12 -27.5 -108t-37.5 -169q-272 27 -412 27t-265 -13.5t-147 -13.5t-22 13v24q0 22 48 28
q48 5 59.5 23.5t11.5 51.5v223h-4q-93 -170 -261.5 -266.5t-375.5 -96.5t-373 96t-254 268t-88 365q0 358 218 567.5t511 209.5q216 0 377 -89.5t246 -248.5h4v231q0 19 -13.5 26.5t-53.5 11.5t-40 32q0 37 21 37q21 1 85 -13t178 -14q112 0 249 6t170 6q22 0 22 -39
l17 -206q0 -19 -26 -19t-32 9t-11.5 33t-14.5 58q-23 87 -103 86h-346v-618h410q57 0 65 52t13 75t35 23t30 -25zM225 740q0 -201 79 -353.5t222 -238t326 -85.5q244 0 381 125t191.5 251t54.5 277q0 300 -175 486.5t-452 186.5q-152 0 -296.5 -74.5t-237.5 -224t-93 -350.5
z" />
    <glyph glyph-name="oe" unicode="&#x153;" horiz-adv-x="1743" 
d="M217 459q0 -96 40.5 -190.5t120.5 -156t191 -61.5t191.5 61.5t121 156t40.5 190.5q0 179 -89.5 293t-262.5 114t-263 -115t-90 -292zM1327 63q152 0 305 146l33 -37q-89 -94 -180 -146.5t-205 -52.5t-198.5 60t-127.5 162q-56 -97 -161 -159.5t-227 -62.5t-225 59.5
t-164.5 170.5t-61.5 257t61.5 257t165 170t209.5 59t226.5 -47t195.5 -209q50 115 137.5 185.5t193.5 70.5t213 -63t107 -256q0 -25 -22 -27l-590 -98q0 -439 315 -439zM1509 696q0 76 -53.5 129.5t-137.5 53.5t-147.5 -44t-104 -116.5t-46.5 -151.5l426 78q41 7 52 17
t11 34z" />
    <glyph glyph-name="Scaron" unicode="&#x160;" horiz-adv-x="1063" 
d="M489 1546l-249 332h45l247 -215l248 215h45l-250 -332h-86zM129 317q17 0 25 -15.5t16 -63.5q35 -199 291 -199q156 0 253 80.5t97 222.5t-80.5 209.5t-250.5 149t-256.5 170t-86.5 259.5q0 102 54.5 182t150.5 123.5t204 43.5t302 -37q6 -118 6 -185q0 -66 -7.5 -73.5
t-25.5 -7.5t-24 14.5t-21 95.5q-22 127 -231 127q-81 0 -154.5 -31t-118.5 -96t-45 -158q0 -129 80.5 -193t254.5 -142t262.5 -162.5t88.5 -258.5t-129 -286.5t-323 -112.5q-125 0 -352 33l-13 207q-2 44 -4 74q0 30 37 30z" />
    <glyph glyph-name="scaron" unicode="&#x161;" horiz-adv-x="834" 
d="M375 1161l-250 332h45l248 -215l248 215h45l-250 -332h-86zM672 740q0 -34 -39 -33q-26 0 -35.5 18.5t-13.5 69.5t-38 67.5t-118 16.5t-144.5 -43.5t-60.5 -137.5q0 -63 51.5 -96.5t176 -90t188 -114t63.5 -145.5t-62.5 -183.5t-260.5 -95.5q-107 0 -221 21q-27 4 -29 29
q-25 166 -25 198q0 47 48 47q22 0 31 -28t24 -115q13 -86 170 -86q80 0 151.5 43t71.5 154q0 68 -55.5 105t-179 92t-184 108t-60.5 151t73.5 176t245.5 78q85 0 195 -14q21 -6 24 -27l11 -108q2 -23 2 -57z" />
    <glyph glyph-name="Ydieresis" unicode="&#x178;" horiz-adv-x="1290" 
d="M369 1672q0 34 24.5 58.5t58.5 24.5t57 -24.5t23 -58.5t-23 -58.5t-57 -24.5t-58.5 24.5t-24.5 58.5zM758 1672q0 34 24.5 58.5t57.5 24.5t57.5 -24.5t24.5 -58.5t-24 -58.5t-58 -24.5t-58 24.5t-24 58.5zM594 176v412l-490 766q-15 24 -29 32t-48 18t-43 17t-9 33t25 25
l62 -13q62 -14 103 -14q40 0 110 14l67 13q12 0 16 -6.5t4 -26.5t-7 -26t-45 -14t-59.5 -13.5t-21.5 -24.5q0 -2 25 -47l403 -641l363 584q47 76 47 96t-15.5 29t-65.5 23t-50 30q0 24 6.5 30.5t22.5 6.5t77.5 -13.5t87.5 -13.5t87 13.5t71 13.5q27 0 27 -19v-24
q0 -9 -9.5 -13t-41.5 -11t-56.5 -26t-62.5 -81l-449 -717v-412q0 -70 27 -88.5t63 -28.5l78 -20q27 -6 27 -25q0 -41 -17 -41q4 0 -91 13.5t-138 13.5t-138 -14l-91 -13q-17 0 -17 41q0 19 27 25l78 20q52 15 71 39t19 78z" />
    <glyph glyph-name="Zcaron" unicode="&#x17d;" horiz-adv-x="1327" 
d="M621 1530l-250 330h45l248 -213l247 213h45l-249 -330h-86zM248 1348q-68 0 -102 -27t-40 -27t-6 11t2 20t4 25l15 92q3 22 16 22l21 -8q54 -18 180 -18h827q37 0 37 -6t-24 -39l-955 -1303h834q93 0 159 12.5t70 12.5q4 1 4 -9t-2 -18l-12 -80q-6 -35 -19 -35
q-76 27 -163 27h-1051l991 1348h-786z" />
    <glyph glyph-name="zcaron" unicode="&#x17e;" horiz-adv-x="983" 
d="M449 1149l-250 330h45l248 -213l247 213h45l-249 -330h-86zM356 0q-153 0 -264 -12q-18 0 -27.5 17t-9.5 36q0 5 47 59l635 719h-217q-242 0 -424 -26q-12 1 -12 19t31 110q113 -13 278 -13h209l260 13q4 0 10.5 -20.5t6.5 -34.5t-56 -76l-633 -701h310q110 0 258 7
t151 7q19 0 19 -20t-25 -88q-2 -8 -18 -8l-22 2q-130 10 -343 10h-164z" />
    <glyph glyph-name="florin" unicode="&#x192;" horiz-adv-x="1065" 
d="M199 621q-19 0 -19 13q0 12 8 38t21 26h242l41 207q31 158 77 283t129 208t207 83q75 0 109.5 -26.5t34.5 -54.5t-18.5 -45.5t-40.5 -17.5t-34.5 6t-49 33t-84.5 27t-90 -47.5t-66 -114t-66 -274.5l-51 -267h268q19 0 19 -11t-7 -39t-22 -27h-275l-124 -641
q-36 -177 -108.5 -359t-293.5 -182q-42 0 -81.5 24.5t-39.5 65.5q0 63 70 63q35 0 61.5 -23t45.5 -30.5t53 -7.5q112 0 180 354l139 736h-235z" />
    <glyph glyph-name="circumflex" unicode="&#x2c6;" 
d="M-27 1161l250 332h86l250 -332h-45l-248 215l-248 -215h-45z" />
    <glyph glyph-name="caron" unicode="&#x2c7;" 
d="M223 1149l-250 330h45l248 -213l248 213h45l-250 -330h-86z" />
    <glyph glyph-name="breve" unicode="&#x2d8;" 
d="M250 1251q205 0 248 211h41q0 -133 -69.5 -223t-203.5 -90t-203 90t-69 223h41q17 -92 77 -151.5t138 -59.5z" />
    <glyph glyph-name="dotaccent" unicode="&#x2d9;" 
d="M184 1274q0 34 24 58t58 24t58 -24t24 -58t-24 -58t-58 -24t-58 24t-24 58z" />
    <glyph glyph-name="ring" unicode="&#x2da;" 
d="M137 1308q0 -52 37.5 -91t82.5 -39t74.5 17t46.5 46.5t17 65.5t-27.5 82.5t-92.5 46.5q-64 0 -101 -38t-37 -90zM72 1308q0 80 58 136.5t136 56.5t136.5 -56.5t58.5 -136.5t-58.5 -138t-136.5 -58t-136 58t-58 138z" />
    <glyph glyph-name="ogonek" unicode="&#x2db;" 
d="M180 -256q0 -55 31 -86t87 -31t122 31l47 -57q-99 -39 -189 -39t-151 47t-61 125t59 138t203 128h100q-148 -94 -198 -147.5t-50 -108.5z" />
    <glyph glyph-name="tilde" unicode="&#x2dc;" 
d="M154 1397q51 0 139 -45q74 -45 115 -45q82 0 131 104h45q-28 -117 -90.5 -155.5t-117.5 -38.5t-124 36t-90.5 45t-48.5 9q-82 0 -119 -95h-45q58 185 205 185z" />
    <glyph glyph-name="hungarumlaut" unicode="&#x2dd;" 
d="M690 1479q20 0 36.5 -15t16.5 -38t-21.5 -42t-78.5 -55l-281 -180h-61l295 268q38 36 56 49t38 13zM322 1479q20 0 36.5 -15.5t16.5 -37.5t-22 -41t-79 -56l-280 -180h-62l295 268q34 32 54.5 47t40.5 15z" />
    <glyph glyph-name="emdash" unicode="&#x2013;" horiz-adv-x="1024" 
d="M0 446v93h1024v-93h-1024z" />
    <glyph glyph-name="endash" unicode="&#x2014;" horiz-adv-x="2048" 
d="M0 446v93h2048v-93h-2048z" />
    <glyph glyph-name="quoteleft" unicode="&#x2018;" 
d="M227 1162q0 -56 47 -56q26 0 37 8q-21 -68 -24 -160q-47 7 -82 7t-82 -7q30 308 205 525h82q-60 -60 -121.5 -160.5t-61.5 -156.5z" />
    <glyph glyph-name="quoteright" unicode="&#x2019;" 
d="M305 1270q0 55 -47 55q-26 0 -37 -8q22 69 25 162q39 -6 81 -6t83 6q-14 -144 -66.5 -283t-138.5 -242h-82q58 58 120 159.5t62 156.5z" />
    <glyph glyph-name="quotesinglbase" unicode="&#x201a;" 
d="M327 168q42 0 83 6q-14 -144 -66.5 -283t-138.5 -243h-82q61 63 121.5 161.5t60.5 154.5t-47 56q-26 0 -37 -8q21 60 25 162q39 -6 81 -6z" />
    <glyph glyph-name="quotedblleft" unicode="&#x201c;" horiz-adv-x="758" 
d="M477 1162q0 -56 47 -56q26 0 37 8q-21 -68 -24 -160q-47 7 -83 7t-81 -7q30 308 205 525h81q-61 -63 -121.5 -162t-60.5 -155zM203 1162q0 -56 47 -56q26 0 37 8q-21 -66 -25 -160q-45 7 -81 7t-83 -7q35 314 205 525h82q-57 -57 -119.5 -159t-62.5 -158z" />
    <glyph glyph-name="quotedblright" unicode="&#x201d;" horiz-adv-x="758" 
d="M281 1270q0 55 -48 55q-25 0 -36 -8q21 71 24 162q39 -6 81 -6t83 6q-14 -144 -66.5 -283t-138.5 -242h-82q60 60 121.5 160.5t61.5 155.5zM555 1270q0 55 -47 55q-26 0 -37 -8q22 74 25 162q40 -6 82 -6t81 6q-31 -314 -204 -525h-82q58 58 120 159.5t62 156.5z" />
    <glyph glyph-name="quotedblbase" unicode="&#x201e;" horiz-adv-x="758" 
d="M281 -36q0 56 -48 56q-25 0 -36 -8q21 68 24 162q39 -6 81 -6t83 6q-14 -144 -66.5 -283t-138.5 -243h-82q63 65 123 162.5t60 153.5zM555 -36q0 56 -47 56q-26 0 -37 -8q22 71 25 162q40 -6 82 -6t81 6q-30 -311 -204 -526h-82q61 63 121.5 161.5t60.5 154.5z" />
    <glyph glyph-name="dagger" unicode="&#x2020;" horiz-adv-x="1065" 
d="M130 932l376 -47q-3 61 -23 270t-20 254q-1 70 69 70t70 -70q0 -51 -19.5 -244t-23.5 -280l297 37l36 6t38 4q43 0 43 -68q0 -61 -66 -61q-13 0 -65 4l-283 37q43 -989 43 -1123q0 -67 -70 -67t-69 71q0 71 3 163.5t12.5 311t17 389.5t10.5 255l-283 -37q-52 -4 -65 -4
q-66 0 -66 61q0 32 12 50t26 18z" />
    <glyph glyph-name="daggerdbl" unicode="&#x2021;" horiz-adv-x="1065" 
d="M160 881q-68 0 -68 63q0 32 13 49t34 17t72 -9l297 -36q-2 26 -20.5 192.5t-18.5 244.5q-1 78 63 77q64 1 64 -77t-18.5 -244.5t-20.5 -192.5l297 36l36 6t38 3t32.5 -16.5t12.5 -49.5q0 -63 -68 -63q-39 0 -65 4l-283 37l23 -355q0 -29 -10 -170t-13 -186l283 37
q26 4 65 4q68 0 68 -62q0 -33 -13.5 -49t-27.5 -16t-30.5 2t-26 3.5t-21.5 2.5l-297 37q2 -24 20.5 -192t18.5 -246t-64 -78t-63 72q0 103 19.5 269.5t19.5 174.5l-297 -37q-11 -1 -34.5 -4.5t-40.5 -3.5q-18 0 -31 16t-13 49q0 62 68 62q39 0 65 -4l283 -37l-23 356
q0 29 10 170.5t13 184.5l-283 -37q-26 -4 -65 -4z" />
    <glyph glyph-name="bullet" unicode="&#x2022;" horiz-adv-x="1026" 
d="M154 726q0 96 48 180.5t130.5 132.5t179.5 48t180 -48.5t131.5 -131.5t48.5 -181t-48 -181.5t-131 -133t-181 -49.5t-180 49t-130 134t-48 181z" />
    <glyph glyph-name="ellipsis" unicode="&#x2026;" horiz-adv-x="2048" 
d="M1614 81q0 39 27 66t66 27t65 -27t26 -66t-26 -66t-65 -27t-66 27t-27 66zM932 81q0 39 27 66t66 27t65 -27t26 -66t-26 -66t-65 -27t-66 27t-27 66zM250 81q0 39 27 66t66 27t65 -27t26 -66t-26 -66t-65 -27t-66 27t-27 66z" />
    <glyph glyph-name="perthousand" unicode="&#x2030;" horiz-adv-x="2048" 
d="M233 -59l799 1591h78l-797 -1591h-80zM1495 293q1 -279 195 -279t194 279q0 305 -194 305t-195 -305zM1689 -27q-147 0 -221.5 99.5t-74.5 253.5q0 91 38.5 162.5t106.5 111t152 39.5t152 -39.5t106.5 -111t38.5 -162.5q0 -154 -75.5 -253.5t-222.5 -99.5zM793 293
q1 -279 195 -279t194 279q0 305 -195 305q-112 0 -153 -88t-41 -217zM989 -27q-148 0 -222.5 99.5t-74.5 253.5q0 91 38.5 162.5t106.5 111t152 39.5t152 -39.5t106.5 -111t38.5 -162.5q0 -156 -74.5 -254.5t-222.5 -98.5zM162 1133q0 -279 194 -279t195 279q0 305 -195 305
q-112 0 -153 -88t-41 -217zM358 813q-146 0 -221.5 99.5t-75.5 252.5q0 92 38.5 164t107 111t151.5 39t151.5 -39t107 -110.5t38.5 -167.5t-32 -176t-99 -126.5t-166 -46.5z" />
    <glyph glyph-name="guilsinglleft" unicode="&#x2039;" 
d="M336 174l-221 318l221 319h82l-221 -319l221 -318h-82z" />
    <glyph glyph-name="guilsinglright" unicode="&#x203a;" 
d="M197 811l221 -319l-221 -318h-82l221 318l-221 319h82z" />
    <glyph glyph-name="fraction" unicode="&#x2044;" horiz-adv-x="328" 
d="M-274 -59l798 1577h78l-797 -1577h-79z" />
    <glyph glyph-name="trademark" unicode="&#x2122;" horiz-adv-x="2028" 
d="M887 643v29q65 7 85.5 33.5t20.5 93.5v532q0 53 -44.5 86t-92.5 33v29h225l330 -666l324 666h215v-29q-67 -3 -96 -31.5t-29 -87.5v-543q0 -59 4.5 -77.5t19.5 -24t78 -14.5v-29h-317v29q56 7 72.5 13.5t22 25.5t5.5 77v510h-4l-320 -655h-18l-317 649h-4v-493
q0 -66 21.5 -93t86.5 -34v-29h-268zM260 643v29q63 9 78 14.5t19.5 24t4.5 77.5v650h-118q-60 0 -91.5 -37t-46.5 -105h-28v183h684v-183h-29q-28 142 -137 142h-119v-650q0 -59 4.5 -77.5t19.5 -24t79 -14.5v-29h-320z" />
    <glyph glyph-name="minus" unicode="&#x2212;" horiz-adv-x="1229" 
d="M96 473v90h1037v-90h-1037z" />
    <glyph glyph-name="periodcentered" unicode="&#x2219;" 
d="M164 625q0 45 29 74.5t73 29.5t73.5 -29.5t29.5 -74.5t-29.5 -74t-73.5 -29t-73 29t-29 74z" />
    <glyph glyph-name="fi" unicode="&#xf001;" horiz-adv-x="1100" 
d="M754 1254q0 34 24 58.5t58 24.5t58 -24.5t24 -58.5t-24 -57t-58 -23t-58 23t-24 57zM1049 28q8 -5 8 -30t-21 -25q-12 0 -85 13.5t-115 13.5t-115.5 -13.5t-85.5 -13.5q-21 0 -21 25t9 30t53 15t70 23.5t32 36.5t6 81v551q0 50 -4.5 62t-19.5 12l-98 -12q-15 0 -15 19
t4 25.5t19 12.5l192 88q15 6 31 6t16 -30q0 -4 -11 -34.5t-11 -70.5v-629q0 -58 6 -81t32 -36.5t71 -23.5t53 -15zM680 1473q0 -64 -57 -64q-28 0 -81 24.5t-81 24.5q-146 0 -146 -231v-316q0 -26 37 -26l228 4q38 0 38 -39q0 -22 -9.5 -36.5t-24.5 -14.5h-269v-615
q0 -77 48 -107.5t192 -37.5q19 -2 25 -7.5t5 -24.5t-9 -26.5t-27 -7.5l-285 27q-32 0 -102 -14l-70 -13q-14 -1 -14 29t20 37q55 16 78 29t30 34.5t7 71.5v602q0 23 -12 23h-66q-14 1 -14 19t18 30l54 41q13 8 16.5 25.5t3.5 62.5v211q0 123 49.5 204.5t121.5 118.5t142 37
q154 0 154 -75z" />
    <glyph glyph-name="fl" unicode="&#xf002;" horiz-adv-x="1100" 
d="M1049 28q8 -5 8 -30t-21 -25q-12 0 -85 13.5t-115 13.5t-115.5 -13.5t-85.5 -13.5q-21 0 -21 25t9 30t53 15t70 23.5t32 36.5t6 81v1198q0 26 -41 31l-94 8q-15 -12 -36 -12t-72 24.5t-80 24.5q-146 0 -146 -231v-316q0 -26 37 -26l273 4q39 0 39 -39q0 -21 -10 -36
t-25 -15h-314v-615q0 -77 48 -107.5t192 -37.5q19 -2 25 -7.5t5 -24.5t-9 -26.5t-27 -7.5l-285 27q-32 0 -102 -14l-70 -13q-14 -1 -14 29t20 37q55 16 78 29t30 34.5t7 71.5v602q0 23 -12 23h-66q-14 1 -14 19t18 30l54 41q13 8 16.5 25.5t3.5 62.5v211q0 123 49.5 204.5
t121.5 118.5t142 37q154 0 154 -75q0 -11 -2 -15l192 78q34 12 40 12t14 -10t8 -23t-17 -21t-22.5 -24.5t-5.5 -68.5v-1217q0 -58 6 -81t32 -36.5t71 -23.5t53 -15z" />
    </font>
</defs>
</svg>
